<svg version="1.1" xmlns="http://www.w3.org/2000/svg" viewBox="0 0 1915.8887331666008 751.5102868542099" width="5747.666199499802" height="2254.5308605626296">
  <!-- svg-source:excalidraw -->
  
  <defs>
    <style class="style-fonts">
      @font-face {
        font-family: "Virgil";
        src: url("https://excalidraw.com/Virgil.woff2");
      }
      @font-face {
        font-family: "Cascadia";
        src: url("https://excalidraw.com/Cascadia.woff2");
      }
      @font-face {
        font-family: "Assistant";
        src: url("https://excalidraw.com/Assistant-Regular.woff2");
      }
    </style>
    
  </defs>
  <g stroke-linecap="round" transform="translate(10 354.0956884752471) rotate(0 90.3196222923579 54.99302376364045)"><path d="M27.5 0 C58.02 0, 88.54 0, 153.14 0 C171.47 0, 180.64 9.17, 180.64 27.5 C180.64 43.58, 180.64 59.67, 180.64 82.49 C180.64 100.82, 171.47 109.99, 153.14 109.99 C110.89 109.99, 68.64 109.99, 27.5 109.99 C9.17 109.99, 0 100.82, 0 82.49 C0 70.03, 0 57.57, 0 27.5 C0 9.17, 9.17 0, 27.5 0" stroke="none" stroke-width="0" fill="#fff5f5"></path><path d="M27.5 0 C52.84 0, 78.18 0, 153.14 0 M27.5 0 C56.69 0, 85.88 0, 153.14 0 M153.14 0 C171.47 0, 180.64 9.17, 180.64 27.5 M153.14 0 C171.47 0, 180.64 9.17, 180.64 27.5 M180.64 27.5 C180.64 40.76, 180.64 54.02, 180.64 82.49 M180.64 27.5 C180.64 48.63, 180.64 69.76, 180.64 82.49 M180.64 82.49 C180.64 100.82, 171.47 109.99, 153.14 109.99 M180.64 82.49 C180.64 100.82, 171.47 109.99, 153.14 109.99 M153.14 109.99 C103.3 109.99, 53.46 109.99, 27.5 109.99 M153.14 109.99 C123.84 109.99, 94.53 109.99, 27.5 109.99 M27.5 109.99 C9.17 109.99, 0 100.82, 0 82.49 M27.5 109.99 C9.17 109.99, 0 100.82, 0 82.49 M0 82.49 C0 63.86, 0 45.23, 0 27.5 M0 82.49 C0 69.52, 0 56.55, 0 27.5 M0 27.5 C0 9.17, 9.17 0, 27.5 0 M0 27.5 C0 9.17, 9.17 0, 27.5 0" stroke="#1e1e1e" stroke-width="4" fill="none"></path></g><g transform="translate(53.058880104857906 397.5887122388875) rotate(0 47.2607421875 11.5)"><text x="47.2607421875" y="0" font-family="Helvetica, Segoe UI Emoji" font-size="20px" fill="#1e1e1e" text-anchor="middle" style="white-space: pre;" direction="ltr" dominant-baseline="text-before-edge">homepage</text></g><g mask="url(#mask-TVB7ZaZB9RqeaMjE7Sl1S)" stroke-linecap="round"><g transform="translate(375.7966101304612 341.7898371590249) rotate(0 -84.79477770454747 28.762496881819924)"><path d="M0 0 C-28.26 9.59, -141.32 47.94, -169.59 57.52 M0 0 C-28.26 9.59, -141.32 47.94, -169.59 57.52" stroke="#1e1e1e" stroke-width="4" fill="none"></path></g><g transform="translate(375.7966101304612 341.7898371590249) rotate(0 -84.79477770454747 28.762496881819924)"><path d="M-150.09 41.88 C-156.48 47, -162.86 52.13, -169.59 57.52 M-150.09 41.88 C-157.12 47.52, -164.14 53.16, -169.59 57.52" stroke="#1e1e1e" stroke-width="4" fill="none"></path></g><g transform="translate(375.7966101304612 341.7898371590249) rotate(0 -84.79477770454747 28.762496881819924)"><path d="M-144.6 58.08 C-152.78 57.9, -160.97 57.72, -169.59 57.52 M-144.6 58.08 C-153.6 57.88, -162.61 57.68, -169.59 57.52" stroke="#1e1e1e" stroke-width="4" fill="none"></path></g></g><mask id="mask-TVB7ZaZB9RqeaMjE7Sl1S"><rect x="0" y="0" fill="#fff" width="645.3861655395561" height="499.3148309226648"></rect><rect x="272.0955824259138" y="359.0523340408448" fill="#000" width="37.8125" height="23" opacity="1"></rect></mask><g transform="translate(272.0955824259138 359.0523340408448) rotate(0 18.906249999999943 11.500000000000004)"><text x="18.90625" y="0" font-family="Helvetica, Segoe UI Emoji" font-size="20px" fill="#1e1e1e" text-anchor="middle" style="white-space: pre;" direction="ltr" dominant-baseline="text-before-edge">logo</text></g><g stroke-linecap="round" transform="translate(675.8778919660692 255.06205663343917) rotate(0 135.12729890192463 59.576545436920014)"><path d="M29.79 0 C82.84 0, 135.89 0, 240.47 0 C260.33 0, 270.25 9.93, 270.25 29.79 C270.25 48.61, 270.25 67.44, 270.25 89.36 C270.25 109.22, 260.33 119.15, 240.47 119.15 C175.96 119.15, 111.46 119.15, 29.79 119.15 C9.93 119.15, 0 109.22, 0 89.36 C0 76.16, 0 62.96, 0 29.79 C0 9.93, 9.93 0, 29.79 0" stroke="none" stroke-width="0" fill="#fff5f5"></path><path d="M29.79 0 C84.31 0, 138.83 0, 240.47 0 M29.79 0 C112.83 0, 195.87 0, 240.47 0 M240.47 0 C260.33 0, 270.25 9.93, 270.25 29.79 M240.47 0 C260.33 0, 270.25 9.93, 270.25 29.79 M270.25 29.79 C270.25 49.95, 270.25 70.1, 270.25 89.36 M270.25 29.79 C270.25 47.45, 270.25 65.11, 270.25 89.36 M270.25 89.36 C270.25 109.22, 260.33 119.15, 240.47 119.15 M270.25 89.36 C270.25 109.22, 260.33 119.15, 240.47 119.15 M240.47 119.15 C194.56 119.15, 148.66 119.15, 29.79 119.15 M240.47 119.15 C194.26 119.15, 148.06 119.15, 29.79 119.15 M29.79 119.15 C9.93 119.15, 0 109.22, 0 89.36 M29.79 119.15 C9.93 119.15, 0 109.22, 0 89.36 M0 89.36 C0 68.84, 0 48.31, 0 29.79 M0 89.36 C0 67.66, 0 45.95, 0 29.79 M0 29.79 C0 9.93, 9.93 0, 29.79 0 M0 29.79 C0 9.93, 9.93 0, 29.79 0" stroke="#1e1e1e" stroke-width="4" fill="none"></path></g><g transform="translate(745.4046049304939 303.1386020703592) rotate(0 65.6005859375 11.5)"><text x="65.6005859375" y="0" font-family="Helvetica, Segoe UI Emoji" font-size="20px" fill="#1e1e1e" text-anchor="middle" style="white-space: pre;" direction="ltr" dominant-baseline="text-before-edge">account_home</text></g><g mask="url(#mask-x0LkAjHi53lt-854Rwlks)" stroke-linecap="round"><g transform="translate(491.21067067237163 311.44332767709955) rotate(0 89.87751338799632 1.482156370846127)"><path d="M0 0 C29.96 0.49, 149.8 2.47, 179.76 2.96 M0 0 C29.96 0.49, 149.8 2.47, 179.76 2.96" stroke="#1e1e1e" stroke-width="4" fill="none"></path></g><g transform="translate(491.21067067237163 311.44332767709955) rotate(0 89.87751338799632 1.482156370846127)"><path d="M156.12 11.13 C163.36 8.63, 170.6 6.13, 179.76 2.96 M156.12 11.13 C161.05 9.43, 165.97 7.72, 179.76 2.96" stroke="#1e1e1e" stroke-width="4" fill="none"></path></g><g transform="translate(491.21067067237163 311.44332767709955) rotate(0 89.87751338799632 1.482156370846127)"><path d="M156.41 -5.97 C163.56 -3.24, 170.71 -0.5, 179.76 2.96 M156.41 -5.97 C161.27 -4.11, 166.14 -2.25, 179.76 2.96" stroke="#1e1e1e" stroke-width="4" fill="none"></path></g></g><mask id="mask-x0LkAjHi53lt-854Rwlks"><rect x="0" y="0" fill="#fff" width="770.9656974483643" height="414.4076404187918"></rect><rect x="542.7434574978679" y="278.4254840479457" fill="#000" width="76.689453125" height="69" opacity="1"></rect></mask><g transform="translate(542.7434574978679 278.42548404794564) rotate(0 38.34472656250006 34.5)"><text x="38.3447265625" y="0" font-family="Helvetica, Segoe UI Emoji" font-size="20px" fill="#1e1e1e" text-anchor="middle" style="white-space: pre;" direction="ltr" dominant-baseline="text-before-edge">accedi/</text><text x="38.3447265625" y="23" font-family="Helvetica, Segoe UI Emoji" font-size="20px" fill="#1e1e1e" text-anchor="middle" style="white-space: pre;" direction="ltr" dominant-baseline="text-before-edge">registrati</text><text x="38.3447265625" y="46" font-family="Helvetica, Segoe UI Emoji" font-size="20px" fill="#1e1e1e" text-anchor="middle" style="white-space: pre;" direction="ltr" dominant-baseline="text-before-edge">/utente</text></g><g stroke-linecap="round" transform="translate(353.207763373455 458.21020261418977) rotate(0 100.525751156789 50.83206353429546)"><path d="M126.25 12.75 C138.55 19.08, 150.86 25.41, 175.8 38.25 C201.05 51, 201.05 51, 175.8 63.75 C162.79 70.36, 149.78 76.96, 126.25 88.91 C101 101.66, 101 101.66, 75.75 88.91 C56.91 79.53, 38.08 70.14, 25.25 63.75 C0 51, 0 51, 25.25 38.25 C38.91 31.35, 52.56 24.46, 75.75 12.75 C101 0, 101 0, 126.25 12.75" stroke="none" stroke-width="0" fill="#fff9db"></path><path d="M126.25 12.75 C137.84 18.72, 149.44 24.68, 175.8 38.25 M126.25 12.75 C145.8 22.81, 165.36 32.87, 175.8 38.25 M175.8 38.25 C201.05 51, 201.05 51, 175.8 63.75 M175.8 38.25 C201.05 51, 201.05 51, 175.8 63.75 M175.8 63.75 C157.42 73.08, 139.05 82.42, 126.25 88.91 M175.8 63.75 C156.18 73.71, 136.57 83.68, 126.25 88.91 M126.25 88.91 C101 101.66, 101 101.66, 75.75 88.91 M126.25 88.91 C101 101.66, 101 101.66, 75.75 88.91 M75.75 88.91 C63.97 83.04, 52.18 77.17, 25.25 63.75 M75.75 88.91 C59.05 80.59, 42.35 72.27, 25.25 63.75 M25.25 63.75 C0 51, 0 51, 25.25 38.25 M25.25 63.75 C0 51, 0 51, 25.25 38.25 M25.25 38.25 C42.06 29.76, 58.87 21.28, 75.75 12.75 M25.25 38.25 C38.3 31.66, 51.35 25.07, 75.75 12.75 M75.75 12.75 C101 0, 101 0, 126.25 12.75 M75.75 12.75 C101 0, 101 0, 126.25 12.75" stroke="#1e1e1e" stroke-width="4" fill="none"></path></g><g transform="translate(428.39934988934954 497.6262343813375) rotate(0 25.5712890625 11.5)"><text x="25.5712890625" y="0" font-family="Helvetica, Segoe UI Emoji" font-size="20px" fill="#1e1e1e" text-anchor="middle" style="white-space: pre;" direction="ltr" dominant-baseline="text-before-edge">footer</text></g><g stroke-linecap="round" transform="translate(371.1986026601678 298.7863407365264) rotate(0 75.10279215285544 35)"><path d="M95 9 C108.25 15.59, 121.51 22.18, 131.21 27 C150.21 36, 150.21 36, 131.21 45 C118.83 50.47, 106.46 55.93, 95 61 C76 70, 76 70, 57 61 C46.33 56.51, 35.66 52.01, 19 45 C0 36, 0 36, 19 27 C32.92 20.41, 46.83 13.82, 57 9 C76 0, 76 0, 95 9" stroke="none" stroke-width="0" fill="#fff9db"></path><path d="M95 9 C107.67 15.3, 120.34 21.6, 131.21 27 M95 9 C106.61 14.77, 118.22 20.54, 131.21 27 M131.21 27 C150.21 36, 150.21 36, 131.21 45 M131.21 27 C150.21 36, 150.21 36, 131.21 45 M131.21 45 C120.18 49.87, 109.14 54.75, 95 61 M131.21 45 C120.91 49.55, 110.61 54.1, 95 61 M95 61 C76 70, 76 70, 57 61 M95 61 C76 70, 76 70, 57 61 M57 61 C42.18 54.76, 27.36 48.52, 19 45 M57 61 C47.21 56.88, 37.42 52.76, 19 45 M19 45 C0 36, 0 36, 19 27 M19 45 C0 36, 0 36, 19 27 M19 27 C27.83 22.82, 36.65 18.64, 57 9 M19 27 C27.38 23.03, 35.76 19.06, 57 9 M57 9 C76 0, 76 0, 95 9 M57 9 C76 0, 76 0, 95 9" stroke="#1e1e1e" stroke-width="4" fill="none"></path></g><g transform="translate(430.12695186159556 322.2863407365264) rotate(0 16.123046875 11.5)"><text x="16.123046875" y="0" font-family="Helvetica, Segoe UI Emoji" font-size="20px" fill="#1e1e1e" text-anchor="middle" style="white-space: pre;" direction="ltr" dominant-baseline="text-before-edge">nav</text></g><g mask="url(#mask-sxl5GoHRZ7a-pUjv3tvgM)" stroke-linecap="round"><g transform="translate(348.3378594149999 513.4889356317431) rotate(0 -72.74061422103316 -33.058776536212164)"><path d="M0 0 C-24.25 -11.02, -121.23 -55.1, -145.48 -66.12 M0 0 C-24.25 -11.02, -121.23 -55.1, -145.48 -66.12" stroke="#1e1e1e" stroke-width="4" fill="none"></path></g><g transform="translate(348.3378594149999 513.4889356317431) rotate(0 -72.74061422103316 -33.058776536212164)"><path d="M-120.56 -64.18 C-127.96 -64.76, -135.37 -65.33, -145.48 -66.12 M-120.56 -64.18 C-127.78 -64.74, -135.01 -65.3, -145.48 -66.12" stroke="#1e1e1e" stroke-width="4" fill="none"></path></g><g transform="translate(348.3378594149999 513.4889356317431) rotate(0 -72.74061422103316 -33.058776536212164)"><path d="M-127.63 -48.61 C-132.93 -53.81, -138.24 -59.01, -145.48 -66.12 M-127.63 -48.61 C-132.81 -53.69, -137.98 -58.77, -145.48 -66.12" stroke="#1e1e1e" stroke-width="4" fill="none"></path></g></g><mask id="mask-sxl5GoHRZ7a-pUjv3tvgM"><rect x="0" y="0" fill="#fff" width="593.8190878570663" height="679.6064887041674"></rect><rect x="228.33650300646673" y="468.9301590955308" fill="#000" width="94.521484375" height="23" opacity="1"></rect></mask><g transform="translate(228.33650300646673 468.93015909553094) rotate(0 47.26074218750003 11.5)"><text x="47.2607421875" y="0" font-family="Helvetica, Segoe UI Emoji" font-size="20px" fill="#1e1e1e" text-anchor="middle" style="white-space: pre;" direction="ltr" dominant-baseline="text-before-edge">homepage</text></g><g mask="url(#mask-7IGNNi7Zngp6PBvJDsLUS)" stroke-linecap="round"><g transform="translate(511.4683607777399 475.26985308281814) rotate(0 75.14854937185896 -49.84521943214989)"><path d="M0 0 C25.05 -16.62, 125.25 -83.08, 150.3 -99.69 M0 0 C25.05 -16.62, 125.25 -83.08, 150.3 -99.69" stroke="#1e1e1e" stroke-width="4" fill="none"></path></g><g transform="translate(511.4683607777399 475.26985308281814) rotate(0 75.14854937185896 -49.84521943214989)"><path d="M135.45 -79.58 C140.55 -86.48, 145.64 -93.39, 150.3 -99.69 M135.45 -79.58 C138.43 -83.62, 141.42 -87.67, 150.3 -99.69" stroke="#1e1e1e" stroke-width="4" fill="none"></path></g><g transform="translate(511.4683607777399 475.26985308281814) rotate(0 75.14854937185896 -49.84521943214989)"><path d="M125.99 -93.83 C134.34 -95.84, 142.68 -97.85, 150.3 -99.69 M125.99 -93.83 C130.88 -95.01, 135.77 -96.19, 150.3 -99.69" stroke="#1e1e1e" stroke-width="4" fill="none"></path></g></g><mask id="mask-7IGNNi7Zngp6PBvJDsLUS"><rect x="0" y="0" fill="#fff" width="761.7654595214578" height="674.9602919471179"></rect><rect x="527.1491367120989" y="413.9246336506683" fill="#000" width="118.935546875" height="23" opacity="1"></rect></mask><g transform="translate(527.1491367120989 413.9246336506682) rotate(0 59.4677734375 11.5)"><text x="59.4677734375" y="0" font-family="Helvetica, Segoe UI Emoji" font-size="20px" fill="#1e1e1e" text-anchor="middle" style="white-space: pre;" direction="ltr" dominant-baseline="text-before-edge">i miei progetti</text></g><g stroke-linecap="round" transform="translate(719.6927677794969 446.6599647834187) rotate(0 130.69617643793305 67.08567011274124)"><path d="M32 0 C81.45 0, 130.91 0, 229.39 0 C250.73 0, 261.39 10.67, 261.39 32 C261.39 52.31, 261.39 72.63, 261.39 102.17 C261.39 123.5, 250.73 134.17, 229.39 134.17 C160.87 134.17, 92.35 134.17, 32 134.17 C10.67 134.17, 0 123.5, 0 102.17 C0 78.26, 0 54.36, 0 32 C0 10.67, 10.67 0, 32 0" stroke="none" stroke-width="0" fill="#fff5f5"></path><path d="M32 0 C105.57 0, 179.14 0, 229.39 0 M32 0 C92.59 0, 153.18 0, 229.39 0 M229.39 0 C250.73 0, 261.39 10.67, 261.39 32 M229.39 0 C250.73 0, 261.39 10.67, 261.39 32 M261.39 32 C261.39 58.59, 261.39 85.18, 261.39 102.17 M261.39 32 C261.39 60.01, 261.39 88.01, 261.39 102.17 M261.39 102.17 C261.39 123.5, 250.73 134.17, 229.39 134.17 M261.39 102.17 C261.39 123.5, 250.73 134.17, 229.39 134.17 M229.39 134.17 C152.94 134.17, 76.49 134.17, 32 134.17 M229.39 134.17 C166.41 134.17, 103.43 134.17, 32 134.17 M32 134.17 C10.67 134.17, 0 123.5, 0 102.17 M32 134.17 C10.67 134.17, 0 123.5, 0 102.17 M0 102.17 C0 81.09, 0 60.02, 0 32 M0 102.17 C0 75.59, 0 49.01, 0 32 M0 32 C0 10.67, 10.67 0, 32 0 M0 32 C0 10.67, 10.67 0, 32 0" stroke="#1e1e1e" stroke-width="4" fill="none"></path></g><g transform="translate(812.02468640493 502.2456348961599) rotate(0 38.3642578125 11.5)"><text x="38.3642578125" y="0" font-family="Helvetica, Segoe UI Emoji" font-size="20px" fill="#1e1e1e" text-anchor="middle" style="white-space: pre;" direction="ltr" dominant-baseline="text-before-edge">about us</text></g><g stroke-linecap="round" transform="translate(696.8941514726354 646.4701033059439) rotate(0 121.9586217720942 42.360052945246196)"><path d="M21.18 0 C93.09 0, 165 0, 222.74 0 C236.86 0, 243.92 7.06, 243.92 21.18 C243.92 31.05, 243.92 40.91, 243.92 63.54 C243.92 77.66, 236.86 84.72, 222.74 84.72 C179.61 84.72, 136.49 84.72, 21.18 84.72 C7.06 84.72, 0 77.66, 0 63.54 C0 52.75, 0 41.96, 0 21.18 C0 7.06, 7.06 0, 21.18 0" stroke="none" stroke-width="0" fill="#fff5f5"></path><path d="M21.18 0 C96.9 0, 172.63 0, 222.74 0 M21.18 0 C76.43 0, 131.69 0, 222.74 0 M222.74 0 C236.86 0, 243.92 7.06, 243.92 21.18 M222.74 0 C236.86 0, 243.92 7.06, 243.92 21.18 M243.92 21.18 C243.92 36.13, 243.92 51.08, 243.92 63.54 M243.92 21.18 C243.92 34.44, 243.92 47.71, 243.92 63.54 M243.92 63.54 C243.92 77.66, 236.86 84.72, 222.74 84.72 M243.92 63.54 C243.92 77.66, 236.86 84.72, 222.74 84.72 M222.74 84.72 C170.22 84.72, 117.71 84.72, 21.18 84.72 M222.74 84.72 C169.52 84.72, 116.3 84.72, 21.18 84.72 M21.18 84.72 C7.06 84.72, 0 77.66, 0 63.54 M21.18 84.72 C7.06 84.72, 0 77.66, 0 63.54 M0 63.54 C0 54.93, 0 46.32, 0 21.18 M0 63.54 C0 52, 0 40.46, 0 21.18 M0 21.18 C0 7.06, 7.06 0, 21.18 0 M0 21.18 C0 7.06, 7.06 0, 21.18 0" stroke="#1e1e1e" stroke-width="4" fill="none"></path></g><g transform="translate(758.8137107447296 677.3301562511901) rotate(0 60.0390625 11.5)"><text x="60.0390625" y="0" font-family="Helvetica, Segoe UI Emoji" font-size="20px" fill="#1e1e1e" text-anchor="middle" style="white-space: pre;" direction="ltr" dominant-baseline="text-before-edge">release notes</text></g><g mask="url(#mask--XOBN-YWdISnIdCfB3Jq5)" stroke-linecap="round"><g transform="translate(564.3390752962132 510.05140292532536) rotate(0 68.42186395293737 0.9684984567709733)"><path d="M0 0 C22.81 0.32, 114.04 1.61, 136.84 1.94 M0 0 C22.81 0.32, 114.04 1.61, 136.84 1.94" stroke="#1e1e1e" stroke-width="4" fill="none"></path></g><g transform="translate(564.3390752962132 510.05140292532536) rotate(0 68.42186395293737 0.9684984567709733)"><path d="M113.23 10.15 C118.9 8.18, 124.57 6.21, 136.84 1.94 M113.23 10.15 C121.32 7.34, 129.4 4.53, 136.84 1.94" stroke="#1e1e1e" stroke-width="4" fill="none"></path></g><g transform="translate(564.3390752962132 510.05140292532536) rotate(0 68.42186395293737 0.9684984567709733)"><path d="M113.47 -6.95 C119.08 -4.81, 124.69 -2.68, 136.84 1.94 M113.47 -6.95 C121.48 -3.9, 129.48 -0.86, 136.84 1.94" stroke="#1e1e1e" stroke-width="4" fill="none"></path></g></g><mask id="mask--XOBN-YWdISnIdCfB3Jq5"><rect x="0" y="0" fill="#fff" width="801.1828032020879" height="611.9883998388673"></rect><rect x="607.7365251866506" y="488.01990138209635" fill="#000" width="50.048828125" height="46" opacity="1"></rect></mask><g transform="translate(607.7365251866506 488.01990138209635) rotate(0 25.024414062499943 23)"><text x="25.0244140625" y="0" font-family="Helvetica, Segoe UI Emoji" font-size="20px" fill="#1e1e1e" text-anchor="middle" style="white-space: pre;" direction="ltr" dominant-baseline="text-before-edge">about</text><text x="25.0244140625" y="23" font-family="Helvetica, Segoe UI Emoji" font-size="20px" fill="#1e1e1e" text-anchor="middle" style="white-space: pre;" direction="ltr" dominant-baseline="text-before-edge">us</text></g><g mask="url(#mask-kbKWEGOYGAa_YBHtgmMh5)" stroke-linecap="round"><g transform="translate(508.08593224015976 545.2999063190393) rotate(0 88.56675808472613 73.88550073118051)"><path d="M0 0 C29.52 24.63, 147.61 123.14, 177.13 147.77 M0 0 C29.52 24.63, 147.61 123.14, 177.13 147.77" stroke="#1e1e1e" stroke-width="4" fill="none"></path></g><g transform="translate(508.08593224015976 545.2999063190393) rotate(0 88.56675808472613 73.88550073118051)"><path d="M153.62 139.29 C159.29 141.33, 164.96 143.38, 177.13 147.77 M153.62 139.29 C162.65 142.55, 171.69 145.81, 177.13 147.77" stroke="#1e1e1e" stroke-width="4" fill="none"></path></g><g transform="translate(508.08593224015976 545.2999063190393) rotate(0 88.56675808472613 73.88550073118051)"><path d="M164.57 126.16 C167.6 131.37, 170.63 136.58, 177.13 147.77 M164.57 126.16 C169.4 134.46, 174.23 142.77, 177.13 147.77" stroke="#1e1e1e" stroke-width="4" fill="none"></path></g></g><mask id="mask-kbKWEGOYGAa_YBHtgmMh5"><rect x="0" y="0" fill="#fff" width="785.219448409612" height="793.0709077814004"></rect><rect x="563.854838762386" y="596.1854070502199" fill="#000" width="65.595703125" height="46" opacity="1"></rect></mask><g transform="translate(563.854838762386 596.18540705022) rotate(0 32.79785156249994 23)"><text x="32.7978515625" y="0" font-family="Helvetica, Segoe UI Emoji" font-size="20px" fill="#1e1e1e" text-anchor="middle" style="white-space: pre;" direction="ltr" dominant-baseline="text-before-edge">release</text><text x="32.7978515625" y="23" font-family="Helvetica, Segoe UI Emoji" font-size="20px" fill="#1e1e1e" text-anchor="middle" style="white-space: pre;" direction="ltr" dominant-baseline="text-before-edge">notes</text></g><g stroke-linecap="round" transform="translate(1193.3470980241555 251.18280403338395) rotate(0 133.50401641511576 63.758287376622405)"><path d="M31.88 0 C90.76 0, 149.65 0, 235.13 0 C256.38 0, 267.01 10.63, 267.01 31.88 C267.01 44.96, 267.01 58.03, 267.01 95.64 C267.01 116.89, 256.38 127.52, 235.13 127.52 C193.46 127.52, 151.79 127.52, 31.88 127.52 C10.63 127.52, 0 116.89, 0 95.64 C0 78.87, 0 62.1, 0 31.88 C0 10.63, 10.63 0, 31.88 0" stroke="none" stroke-width="0" fill="#fff5f5"></path><path d="M31.88 0 C79.22 0, 126.56 0, 235.13 0 M31.88 0 C85.49 0, 139.1 0, 235.13 0 M235.13 0 C256.38 0, 267.01 10.63, 267.01 31.88 M235.13 0 C256.38 0, 267.01 10.63, 267.01 31.88 M267.01 31.88 C267.01 56.52, 267.01 81.16, 267.01 95.64 M267.01 31.88 C267.01 49.86, 267.01 67.84, 267.01 95.64 M267.01 95.64 C267.01 116.89, 256.38 127.52, 235.13 127.52 M267.01 95.64 C267.01 116.89, 256.38 127.52, 235.13 127.52 M235.13 127.52 C176.98 127.52, 118.84 127.52, 31.88 127.52 M235.13 127.52 C178.21 127.52, 121.28 127.52, 31.88 127.52 M31.88 127.52 C10.63 127.52, 0 116.89, 0 95.64 M31.88 127.52 C10.63 127.52, 0 116.89, 0 95.64 M0 95.64 C0 71.72, 0 47.8, 0 31.88 M0 95.64 C0 78.25, 0 60.85, 0 31.88 M0 31.88 C0 10.63, 10.63 0, 31.88 0 M0 31.88 C0 10.63, 10.63 0, 31.88 0" stroke="#1e1e1e" stroke-width="4" fill="none"></path></g><g transform="translate(1266.2602941267712 303.4410914100064) rotate(0 60.5908203125 11.5)"><text x="60.5908203125" y="0" font-family="Helvetica, Segoe UI Emoji" font-size="20px" fill="#1e1e1e" text-anchor="middle" style="white-space: pre;" direction="ltr" dominant-baseline="text-before-edge">project_home</text></g><g mask="url(#mask-uxcZbHySEIPc96gtdgWjR)" stroke-linecap="round"><g transform="translate(961.6587364858551 303.60330433542737) rotate(0 107.61231438867571 -0.483168117224956)"><path d="M0 0 C35.87 -0.16, 179.35 -0.81, 215.22 -0.97 M0 0 C35.87 -0.16, 179.35 -0.81, 215.22 -0.97" stroke="#1e1e1e" stroke-width="4" fill="none"></path></g><g transform="translate(961.6587364858551 303.60330433542737) rotate(0 107.61231438867571 -0.483168117224956)"><path d="M191.77 7.69 C199.71 4.76, 207.64 1.83, 215.22 -0.97 M191.77 7.69 C198.72 5.12, 205.68 2.56, 215.22 -0.97" stroke="#1e1e1e" stroke-width="4" fill="none"></path></g><g transform="translate(961.6587364858551 303.60330433542737) rotate(0 107.61231438867571 -0.483168117224956)"><path d="M191.69 -9.41 C199.66 -6.55, 207.62 -3.7, 215.22 -0.97 M191.69 -9.41 C198.67 -6.91, 205.65 -4.4, 215.22 -0.97" stroke="#1e1e1e" stroke-width="4" fill="none"></path></g></g><mask id="mask-uxcZbHySEIPc96gtdgWjR"><rect x="0" y="0" fill="#fff" width="1276.8833652632065" height="404.56964056987727"></rect><rect x="1015.355035249531" y="291.6201362182024" fill="#000" width="107.83203125" height="23" opacity="1"></rect></mask><g transform="translate(1015.3550352495306 291.6201362182024) rotate(0 53.916015625 11.500000000000007)"><text x="53.916015625" y="0" font-family="Helvetica, Segoe UI Emoji" font-size="20px" fill="#1e1e1e" text-anchor="middle" style="white-space: pre;" direction="ltr" dominant-baseline="text-before-edge">lista progetti</text></g><g stroke-linecap="round" transform="translate(1062.540423015397 641.4832401443368) rotate(0 75.58538964893364 47.76239087828924)"><path d="M151.17 47.76 C151.17 49.68, 150.99 51.61, 150.62 53.52 C150.25 55.42, 149.7 57.33, 148.97 59.19 C148.25 61.06, 147.34 62.9, 146.26 64.7 C145.18 66.49, 143.92 68.26, 142.51 69.96 C141.1 71.66, 139.52 73.32, 137.79 74.89 C136.07 76.47, 134.18 78, 132.16 79.43 C130.15 80.87, 127.98 82.24, 125.71 83.51 C123.43 84.79, 121.02 85.98, 118.52 87.07 C116.02 88.16, 113.4 89.16, 110.71 90.05 C108.02 90.95, 105.23 91.74, 102.39 92.42 C99.55 93.1, 96.62 93.68, 93.67 94.14 C90.73 94.6, 87.71 94.95, 84.7 95.18 C81.68 95.41, 78.62 95.52, 75.59 95.52 C72.55 95.52, 69.49 95.41, 66.47 95.18 C63.46 94.95, 60.45 94.6, 57.5 94.14 C54.55 93.68, 51.62 93.1, 48.78 92.42 C45.94 91.74, 43.15 90.95, 40.46 90.05 C37.77 89.16, 35.15 88.16, 32.65 87.07 C30.15 85.98, 27.74 84.79, 25.46 83.51 C23.19 82.24, 21.02 80.87, 19.01 79.43 C17 78, 15.11 76.47, 13.38 74.89 C11.65 73.32, 10.07 71.66, 8.66 69.96 C7.25 68.26, 5.99 66.49, 4.91 64.7 C3.83 62.9, 2.92 61.06, 2.2 59.19 C1.47 57.33, 0.92 55.42, 0.55 53.52 C0.19 51.61, 0 49.68, 0 47.76 C0 45.84, 0.19 43.91, 0.55 42.01 C0.92 40.1, 1.47 38.2, 2.2 36.33 C2.92 34.47, 3.83 32.62, 4.91 30.83 C5.99 29.03, 7.25 27.27, 8.66 25.57 C10.07 23.87, 11.65 22.21, 13.38 20.63 C15.11 19.05, 17 17.53, 19.01 16.09 C21.02 14.65, 23.19 13.28, 25.46 12.01 C27.74 10.74, 30.15 9.54, 32.65 8.45 C35.15 7.36, 37.77 6.36, 40.46 5.47 C43.15 4.58, 45.94 3.78, 48.78 3.1 C51.62 2.42, 54.55 1.85, 57.5 1.39 C60.45 0.93, 63.46 0.58, 66.47 0.35 C69.49 0.12, 72.55 0, 75.59 0 C78.62 0, 81.68 0.12, 84.7 0.35 C87.71 0.58, 90.73 0.93, 93.67 1.39 C96.62 1.85, 99.55 2.42, 102.39 3.1 C105.23 3.78, 108.02 4.58, 110.71 5.47 C113.4 6.36, 116.02 7.36, 118.52 8.45 C121.02 9.54, 123.43 10.74, 125.71 12.01 C127.98 13.28, 130.15 14.65, 132.16 16.09 C134.18 17.53, 136.07 19.05, 137.79 20.63 C139.52 22.21, 141.1 23.87, 142.51 25.57 C143.92 27.27, 145.18 29.03, 146.26 30.83 C147.34 32.62, 148.25 34.47, 148.97 36.33 C149.7 38.2, 150.25 40.1, 150.62 42.01 C150.99 43.91, 151.17 45.84, 151.17 47.76" stroke="none" stroke-width="0" fill="#e7f5ff"></path><path d="M151.17 47.76 C151.17 49.68, 150.99 51.61, 150.62 53.52 C150.25 55.42, 149.7 57.33, 148.97 59.19 C148.25 61.06, 147.34 62.9, 146.26 64.7 C145.18 66.49, 143.92 68.26, 142.51 69.96 C141.1 71.66, 139.52 73.32, 137.79 74.89 C136.07 76.47, 134.18 78, 132.16 79.43 C130.15 80.87, 127.98 82.24, 125.71 83.51 C123.43 84.79, 121.02 85.98, 118.52 87.07 C116.02 88.16, 113.4 89.16, 110.71 90.05 C108.02 90.95, 105.23 91.74, 102.39 92.42 C99.55 93.1, 96.62 93.68, 93.67 94.14 C90.73 94.6, 87.71 94.95, 84.7 95.18 C81.68 95.41, 78.62 95.52, 75.59 95.52 C72.55 95.52, 69.49 95.41, 66.47 95.18 C63.46 94.95, 60.45 94.6, 57.5 94.14 C54.55 93.68, 51.62 93.1, 48.78 92.42 C45.94 91.74, 43.15 90.95, 40.46 90.05 C37.77 89.16, 35.15 88.16, 32.65 87.07 C30.15 85.98, 27.74 84.79, 25.46 83.51 C23.19 82.24, 21.02 80.87, 19.01 79.43 C17 78, 15.11 76.47, 13.38 74.89 C11.65 73.32, 10.07 71.66, 8.66 69.96 C7.25 68.26, 5.99 66.49, 4.91 64.7 C3.83 62.9, 2.92 61.06, 2.2 59.19 C1.47 57.33, 0.92 55.42, 0.55 53.52 C0.19 51.61, 0 49.68, 0 47.76 C0 45.84, 0.19 43.91, 0.55 42.01 C0.92 40.1, 1.47 38.2, 2.2 36.33 C2.92 34.47, 3.83 32.62, 4.91 30.83 C5.99 29.03, 7.25 27.27, 8.66 25.57 C10.07 23.87, 11.65 22.21, 13.38 20.63 C15.11 19.05, 17 17.53, 19.01 16.09 C21.02 14.65, 23.19 13.28, 25.46 12.01 C27.74 10.74, 30.15 9.54, 32.65 8.45 C35.15 7.36, 37.77 6.36, 40.46 5.47 C43.15 4.58, 45.94 3.78, 48.78 3.1 C51.62 2.42, 54.55 1.85, 57.5 1.39 C60.45 0.93, 63.46 0.58, 66.47 0.35 C69.49 0.12, 72.55 0, 75.59 0 C78.62 0, 81.68 0.12, 84.7 0.35 C87.71 0.58, 90.73 0.93, 93.67 1.39 C96.62 1.85, 99.55 2.42, 102.39 3.1 C105.23 3.78, 108.02 4.58, 110.71 5.47 C113.4 6.36, 116.02 7.36, 118.52 8.45 C121.02 9.54, 123.43 10.74, 125.71 12.01 C127.98 13.28, 130.15 14.65, 132.16 16.09 C134.18 17.53, 136.07 19.05, 137.79 20.63 C139.52 22.21, 141.1 23.87, 142.51 25.57 C143.92 27.27, 145.18 29.03, 146.26 30.83 C147.34 32.62, 148.25 34.47, 148.97 36.33 C149.7 38.2, 150.25 40.1, 150.62 42.01 C150.99 43.91, 151.17 45.84, 151.17 47.76" stroke="#1e1e1e" stroke-width="4" fill="none"></path></g><g transform="translate(1100.942542959942 666.4725205469051) rotate(0 37.236328125 23)"><text x="37.236328125" y="0" font-family="Helvetica, Segoe UI Emoji" font-size="20px" fill="#1e1e1e" text-anchor="middle" style="white-space: pre;" direction="ltr" dominant-baseline="text-before-edge">modifica</text><text x="37.236328125" y="23" font-family="Helvetica, Segoe UI Emoji" font-size="20px" fill="#1e1e1e" text-anchor="middle" style="white-space: pre;" direction="ltr" dominant-baseline="text-before-edge">progetto</text></g><g stroke-linecap="round" transform="translate(1252.8005344109445 643.0210519649795) rotate(0 82.62381420623728 49.24461744461519)"><path d="M165.25 49.24 C165.25 51.08, 165.07 52.93, 164.73 54.76 C164.38 56.58, 163.86 58.41, 163.18 60.2 C162.49 61.99, 161.63 63.77, 160.61 65.51 C159.59 67.24, 158.4 68.96, 157.07 70.61 C155.73 72.27, 154.22 73.89, 152.58 75.44 C150.94 77, 149.14 78.51, 147.22 79.95 C145.3 81.39, 143.23 82.77, 141.05 84.07 C138.87 85.37, 136.55 86.6, 134.14 87.75 C131.73 88.89, 129.19 89.96, 126.58 90.94 C123.97 91.92, 121.25 92.82, 118.47 93.61 C115.69 94.41, 112.82 95.12, 109.91 95.73 C107 96.33, 104.02 96.85, 101.01 97.25 C98 97.66, 94.94 97.97, 91.87 98.18 C88.81 98.39, 85.71 98.49, 82.62 98.49 C79.54 98.49, 76.44 98.39, 73.37 98.18 C70.31 97.97, 67.24 97.66, 64.24 97.25 C61.23 96.85, 58.25 96.33, 55.33 95.73 C52.42 95.12, 49.55 94.41, 46.77 93.61 C44 92.82, 41.28 91.92, 38.67 90.94 C36.05 89.96, 33.52 88.89, 31.11 87.75 C28.7 86.6, 26.38 85.37, 24.2 84.07 C22.02 82.77, 19.95 81.39, 18.03 79.95 C16.1 78.51, 14.3 77, 12.66 75.44 C11.02 73.89, 9.52 72.27, 8.18 70.61 C6.84 68.96, 5.66 67.24, 4.64 65.51 C3.62 63.77, 2.76 61.99, 2.07 60.2 C1.39 58.41, 0.86 56.58, 0.52 54.76 C0.17 52.93, 0 51.08, 0 49.24 C0 47.41, 0.17 45.56, 0.52 43.73 C0.86 41.9, 1.39 40.08, 2.07 38.29 C2.76 36.49, 3.62 34.71, 4.64 32.98 C5.66 31.25, 6.84 29.53, 8.18 27.88 C9.52 26.22, 11.02 24.6, 12.66 23.04 C14.3 21.49, 16.1 19.98, 18.03 18.54 C19.95 17.1, 22.02 15.72, 24.2 14.42 C26.38 13.12, 28.7 11.89, 31.11 10.74 C33.52 9.6, 36.05 8.53, 38.67 7.55 C41.28 6.57, 44 5.67, 46.77 4.88 C49.55 4.08, 52.42 3.37, 55.33 2.76 C58.25 2.16, 61.23 1.64, 64.24 1.23 C67.24 0.83, 70.31 0.52, 73.37 0.31 C76.44 0.1, 79.54 0, 82.62 0 C85.71 0, 88.81 0.1, 91.87 0.31 C94.94 0.52, 98 0.83, 101.01 1.23 C104.02 1.64, 107 2.16, 109.91 2.76 C112.82 3.37, 115.69 4.08, 118.47 4.88 C121.25 5.67, 123.97 6.57, 126.58 7.55 C129.19 8.53, 131.73 9.6, 134.14 10.74 C136.55 11.89, 138.87 13.12, 141.05 14.42 C143.23 15.72, 145.3 17.1, 147.22 18.54 C149.14 19.98, 150.94 21.49, 152.58 23.04 C154.22 24.6, 155.73 26.22, 157.07 27.88 C158.4 29.53, 159.59 31.25, 160.61 32.98 C161.63 34.71, 162.49 36.49, 163.18 38.29 C163.86 40.08, 164.38 41.9, 164.73 43.73 C165.07 45.56, 165.16 48.33, 165.25 49.24 C165.33 50.16, 165.33 48.33, 165.25 49.24" stroke="none" stroke-width="0" fill="#e7f5ff"></path><path d="M165.25 49.24 C165.25 51.08, 165.07 52.93, 164.73 54.76 C164.38 56.58, 163.86 58.41, 163.18 60.2 C162.49 61.99, 161.63 63.77, 160.61 65.51 C159.59 67.24, 158.4 68.96, 157.07 70.61 C155.73 72.27, 154.22 73.89, 152.58 75.44 C150.94 77, 149.14 78.51, 147.22 79.95 C145.3 81.39, 143.23 82.77, 141.05 84.07 C138.87 85.37, 136.55 86.6, 134.14 87.75 C131.73 88.89, 129.19 89.96, 126.58 90.94 C123.97 91.92, 121.25 92.82, 118.47 93.61 C115.69 94.41, 112.82 95.12, 109.91 95.73 C107 96.33, 104.02 96.85, 101.01 97.25 C98 97.66, 94.94 97.97, 91.87 98.18 C88.81 98.39, 85.71 98.49, 82.62 98.49 C79.54 98.49, 76.44 98.39, 73.37 98.18 C70.31 97.97, 67.24 97.66, 64.24 97.25 C61.23 96.85, 58.25 96.33, 55.33 95.73 C52.42 95.12, 49.55 94.41, 46.77 93.61 C44 92.82, 41.28 91.92, 38.67 90.94 C36.05 89.96, 33.52 88.89, 31.11 87.75 C28.7 86.6, 26.38 85.37, 24.2 84.07 C22.02 82.77, 19.95 81.39, 18.03 79.95 C16.1 78.51, 14.3 77, 12.66 75.44 C11.02 73.89, 9.52 72.27, 8.18 70.61 C6.84 68.96, 5.66 67.24, 4.64 65.51 C3.62 63.77, 2.76 61.99, 2.07 60.2 C1.39 58.41, 0.86 56.58, 0.52 54.76 C0.17 52.93, 0 51.08, 0 49.24 C0 47.41, 0.17 45.56, 0.52 43.73 C0.86 41.9, 1.39 40.08, 2.07 38.29 C2.76 36.49, 3.62 34.71, 4.64 32.98 C5.66 31.25, 6.84 29.53, 8.18 27.88 C9.52 26.22, 11.02 24.6, 12.66 23.04 C14.3 21.49, 16.1 19.98, 18.03 18.54 C19.95 17.1, 22.02 15.72, 24.2 14.42 C26.38 13.12, 28.7 11.89, 31.11 10.74 C33.52 9.6, 36.05 8.53, 38.67 7.55 C41.28 6.57, 44 5.67, 46.77 4.88 C49.55 4.08, 52.42 3.37, 55.33 2.76 C58.25 2.16, 61.23 1.64, 64.24 1.23 C67.24 0.83, 70.31 0.52, 73.37 0.31 C76.44 0.1, 79.54 0, 82.62 0 C85.71 0, 88.81 0.1, 91.87 0.31 C94.94 0.52, 98 0.83, 101.01 1.23 C104.02 1.64, 107 2.16, 109.91 2.76 C112.82 3.37, 115.69 4.08, 118.47 4.88 C121.25 5.67, 123.97 6.57, 126.58 7.55 C129.19 8.53, 131.73 9.6, 134.14 10.74 C136.55 11.89, 138.87 13.12, 141.05 14.42 C143.23 15.72, 145.3 17.1, 147.22 18.54 C149.14 19.98, 150.94 21.49, 152.58 23.04 C154.22 24.6, 155.73 26.22, 157.07 27.88 C158.4 29.53, 159.59 31.25, 160.61 32.98 C161.63 34.71, 162.49 36.49, 163.18 38.29 C163.86 40.08, 164.38 41.9, 164.73 43.73 C165.07 45.56, 165.16 48.33, 165.25 49.24 C165.33 50.16, 165.33 48.33, 165.25 49.24" stroke="#1e1e1e" stroke-width="4" fill="none"></path></g><g transform="translate(1296.589356491954 680.94446647757) rotate(0 38.9111328125 11.5)"><text x="38.9111328125" y="0" font-family="Helvetica, Segoe UI Emoji" font-size="20px" fill="#1e1e1e" text-anchor="middle" style="white-space: pre;" direction="ltr" dominant-baseline="text-before-edge">condividi</text></g><g stroke-linecap="round" transform="translate(1003.7289082062046 476.9634170496459) rotate(0 98.1085765457467 56.766985076393155)"><path d="M196.22 56.77 C196.22 58.74, 196.04 60.73, 195.68 62.7 C195.32 64.67, 194.78 66.63, 194.07 68.57 C193.36 70.5, 192.47 72.43, 191.42 74.31 C190.36 76.19, 189.13 78.05, 187.74 79.86 C186.34 81.66, 184.78 83.44, 183.07 85.15 C181.36 86.86, 179.49 88.53, 177.48 90.13 C175.47 91.73, 173.3 93.28, 171.02 94.75 C168.73 96.22, 166.3 97.63, 163.76 98.95 C161.22 100.28, 158.54 101.53, 155.78 102.69 C153.01 103.86, 150.12 104.94, 147.16 105.93 C144.2 106.92, 141.14 107.82, 138.01 108.63 C134.89 109.43, 131.68 110.14, 128.43 110.76 C125.17 111.37, 121.85 111.88, 118.51 112.29 C115.16 112.7, 111.76 113.02, 108.36 113.22 C104.96 113.43, 101.53 113.53, 98.11 113.53 C94.69 113.53, 91.25 113.43, 87.85 113.22 C84.45 113.02, 81.05 112.7, 77.71 112.29 C74.37 111.88, 71.04 111.37, 67.79 110.76 C64.54 110.14, 61.33 109.43, 58.2 108.63 C55.08 107.82, 52.01 106.92, 49.05 105.93 C46.09 104.94, 43.21 103.86, 40.44 102.69 C37.68 101.53, 35 100.28, 32.46 98.95 C29.92 97.63, 27.49 96.22, 25.2 94.75 C22.91 93.28, 20.75 91.73, 18.74 90.13 C16.73 88.53, 14.85 86.86, 13.14 85.15 C11.43 83.44, 9.87 81.66, 8.48 79.86 C7.09 78.05, 5.86 76.19, 4.8 74.31 C3.75 72.43, 2.85 70.5, 2.14 68.57 C1.43 66.63, 0.89 64.67, 0.54 62.7 C0.18 60.73, 0 58.74, 0 56.77 C0 54.79, 0.18 52.8, 0.54 50.83 C0.89 48.87, 1.43 46.9, 2.14 44.96 C2.85 43.03, 3.75 41.11, 4.8 39.23 C5.86 37.34, 7.09 35.48, 8.48 33.68 C9.87 31.87, 11.43 30.1, 13.14 28.38 C14.85 26.67, 16.73 25, 18.74 23.4 C20.75 21.8, 22.91 20.25, 25.2 18.78 C27.49 17.31, 29.92 15.9, 32.46 14.58 C35 13.26, 37.68 12, 40.44 10.84 C43.21 9.68, 46.09 8.59, 49.05 7.61 C52.01 6.62, 55.08 5.71, 58.2 4.91 C61.33 4.1, 64.54 3.39, 67.79 2.78 C71.04 2.17, 74.37 1.65, 77.71 1.24 C81.05 0.83, 84.45 0.52, 87.85 0.31 C91.25 0.1, 94.69 0, 98.11 0 C101.53 0, 104.96 0.1, 108.36 0.31 C111.76 0.52, 115.16 0.83, 118.51 1.24 C121.85 1.65, 125.17 2.17, 128.43 2.78 C131.68 3.39, 134.89 4.1, 138.01 4.91 C141.14 5.71, 144.2 6.62, 147.16 7.61 C150.12 8.59, 153.01 9.68, 155.78 10.84 C158.54 12, 161.22 13.26, 163.76 14.58 C166.3 15.9, 168.73 17.31, 171.02 18.78 C173.3 20.25, 175.47 21.8, 177.48 23.4 C179.49 25, 181.36 26.67, 183.07 28.38 C184.78 30.1, 186.34 31.87, 187.74 33.68 C189.13 35.48, 190.36 37.34, 191.42 39.23 C192.47 41.11, 193.36 43.03, 194.07 44.96 C194.78 46.9, 195.32 48.87, 195.68 50.83 C196.04 52.8, 196.13 55.78, 196.22 56.77 C196.31 57.76, 196.31 55.78, 196.22 56.77" stroke="none" stroke-width="0" fill="#e7f5ff"></path><path d="M196.22 56.77 C196.22 58.74, 196.04 60.73, 195.68 62.7 C195.32 64.67, 194.78 66.63, 194.07 68.57 C193.36 70.5, 192.47 72.43, 191.42 74.31 C190.36 76.19, 189.13 78.05, 187.74 79.86 C186.34 81.66, 184.78 83.44, 183.07 85.15 C181.36 86.86, 179.49 88.53, 177.48 90.13 C175.47 91.73, 173.3 93.28, 171.02 94.75 C168.73 96.22, 166.3 97.63, 163.76 98.95 C161.22 100.28, 158.54 101.53, 155.78 102.69 C153.01 103.86, 150.12 104.94, 147.16 105.93 C144.2 106.92, 141.14 107.82, 138.01 108.63 C134.89 109.43, 131.68 110.14, 128.43 110.76 C125.17 111.37, 121.85 111.88, 118.51 112.29 C115.16 112.7, 111.76 113.02, 108.36 113.22 C104.96 113.43, 101.53 113.53, 98.11 113.53 C94.69 113.53, 91.25 113.43, 87.85 113.22 C84.45 113.02, 81.05 112.7, 77.71 112.29 C74.37 111.88, 71.04 111.37, 67.79 110.76 C64.54 110.14, 61.33 109.43, 58.2 108.63 C55.08 107.82, 52.01 106.92, 49.05 105.93 C46.09 104.94, 43.21 103.86, 40.44 102.69 C37.68 101.53, 35 100.28, 32.46 98.95 C29.92 97.63, 27.49 96.22, 25.2 94.75 C22.91 93.28, 20.75 91.73, 18.74 90.13 C16.73 88.53, 14.85 86.86, 13.14 85.15 C11.43 83.44, 9.87 81.66, 8.48 79.86 C7.09 78.05, 5.86 76.19, 4.8 74.31 C3.75 72.43, 2.85 70.5, 2.14 68.57 C1.43 66.63, 0.89 64.67, 0.54 62.7 C0.18 60.73, 0 58.74, 0 56.77 C0 54.79, 0.18 52.8, 0.54 50.83 C0.89 48.87, 1.43 46.9, 2.14 44.96 C2.85 43.03, 3.75 41.11, 4.8 39.23 C5.86 37.34, 7.09 35.48, 8.48 33.68 C9.87 31.87, 11.43 30.1, 13.14 28.38 C14.85 26.67, 16.73 25, 18.74 23.4 C20.75 21.8, 22.91 20.25, 25.2 18.78 C27.49 17.31, 29.92 15.9, 32.46 14.58 C35 13.26, 37.68 12, 40.44 10.84 C43.21 9.68, 46.09 8.59, 49.05 7.61 C52.01 6.62, 55.08 5.71, 58.2 4.91 C61.33 4.1, 64.54 3.39, 67.79 2.78 C71.04 2.17, 74.37 1.65, 77.71 1.24 C81.05 0.83, 84.45 0.52, 87.85 0.31 C91.25 0.1, 94.69 0, 98.11 0 C101.53 0, 104.96 0.1, 108.36 0.31 C111.76 0.52, 115.16 0.83, 118.51 1.24 C121.85 1.65, 125.17 2.17, 128.43 2.78 C131.68 3.39, 134.89 4.1, 138.01 4.91 C141.14 5.71, 144.2 6.62, 147.16 7.61 C150.12 8.59, 153.01 9.68, 155.78 10.84 C158.54 12, 161.22 13.26, 163.76 14.58 C166.3 15.9, 168.73 17.31, 171.02 18.78 C173.3 20.25, 175.47 21.8, 177.48 23.4 C179.49 25, 181.36 26.67, 183.07 28.38 C184.78 30.1, 186.34 31.87, 187.74 33.68 C189.13 35.48, 190.36 37.34, 191.42 39.23 C192.47 41.11, 193.36 43.03, 194.07 44.96 C194.78 46.9, 195.32 48.87, 195.68 50.83 C196.04 52.8, 196.13 55.78, 196.22 56.77 C196.31 57.76, 196.31 55.78, 196.22 56.77" stroke="#1e1e1e" stroke-width="4" fill="none"></path></g><g transform="translate(1053.6048699838943 510.5900820310059) rotate(0 48.359375 23.000000000000007)"><text x="48.359375" y="0" font-family="Helvetica, Segoe UI Emoji" font-size="20px" fill="#1e1e1e" text-anchor="middle" style="white-space: pre;" direction="ltr" dominant-baseline="text-before-edge">modifica </text><text x="48.359375" y="23" font-family="Helvetica, Segoe UI Emoji" font-size="20px" fill="#1e1e1e" text-anchor="middle" style="white-space: pre;" direction="ltr" dominant-baseline="text-before-edge">transazioni</text></g><g stroke-linecap="round" transform="translate(1209.0502119318176 12.200455431995977) rotate(0 108.41625994508661 67.14249630890112)"><path d="M32 0 C69.9 0, 107.8 0, 184.83 0 C206.17 0, 216.83 10.67, 216.83 32 C216.83 49.27, 216.83 66.55, 216.83 102.28 C216.83 123.62, 206.17 134.28, 184.83 134.28 C147.95 134.28, 111.06 134.28, 32 134.28 C10.67 134.28, 0 123.62, 0 102.28 C0 76.55, 0 50.81, 0 32 C0 10.67, 10.67 0, 32 0" stroke="none" stroke-width="0" fill="#fff5f5"></path><path d="M32 0 C69.72 0, 107.43 0, 184.83 0 M32 0 C91.33 0, 150.65 0, 184.83 0 M184.83 0 C206.17 0, 216.83 10.67, 216.83 32 M184.83 0 C206.17 0, 216.83 10.67, 216.83 32 M216.83 32 C216.83 47.07, 216.83 62.14, 216.83 102.28 M216.83 32 C216.83 59.92, 216.83 87.85, 216.83 102.28 M216.83 102.28 C216.83 123.62, 206.17 134.28, 184.83 134.28 M216.83 102.28 C216.83 123.62, 206.17 134.28, 184.83 134.28 M184.83 134.28 C144.59 134.28, 104.35 134.28, 32 134.28 M184.83 134.28 C131.84 134.28, 78.84 134.28, 32 134.28 M32 134.28 C10.67 134.28, 0 123.62, 0 102.28 M32 134.28 C10.67 134.28, 0 123.62, 0 102.28 M0 102.28 C0 80.83, 0 59.37, 0 32 M0 102.28 C0 83.83, 0 65.38, 0 32 M0 32 C0 10.67, 10.67 0, 32 0 M0 32 C0 10.67, 10.67 0, 32 0" stroke="#1e1e1e" stroke-width="4" fill="none"></path></g><g transform="translate(1275.7574875019043 67.84295174089709) rotate(0 41.708984375 11.5)"><text x="41.708984375" y="0" font-family="Helvetica, Segoe UI Emoji" font-size="20px" fill="#1e1e1e" text-anchor="middle" style="white-space: pre;" direction="ltr" dominant-baseline="text-before-edge">tag_page</text></g><g mask="url(#mask-w8tupUxXOBwTxtIUeh65S)" stroke-linecap="round"><g transform="translate(1308.4064219649886 234.83290997403924) rotate(0 -1.0944287432490682 -34.14827370093295)"><path d="M0 0 C-0.36 -11.38, -1.82 -56.91, -2.19 -68.3 M0 0 C-0.36 -11.38, -1.82 -56.91, -2.19 -68.3" stroke="#1e1e1e" stroke-width="4" fill="none"></path></g><g transform="translate(1308.4064219649886 234.83290997403924) rotate(0 -1.0944287432490682 -34.14827370093295)"><path d="M7.11 -45.09 C4.09 -52.63, 1.07 -60.16, -2.19 -68.3 M7.11 -45.09 C4.6 -51.35, 2.09 -57.61, -2.19 -68.3" stroke="#1e1e1e" stroke-width="4" fill="none"></path></g><g transform="translate(1308.4064219649886 234.83290997403924) rotate(0 -1.0944287432490682 -34.14827370093295)"><path d="M-9.98 -44.54 C-7.45 -52.26, -4.92 -59.97, -2.19 -68.3 M-9.98 -44.54 C-7.88 -50.95, -5.78 -57.36, -2.19 -68.3" stroke="#1e1e1e" stroke-width="4" fill="none"></path></g></g><mask id="mask-w8tupUxXOBwTxtIUeh65S"><rect x="0" y="0" fill="#fff" width="1410.5952794514867" height="403.12945737590513"></rect><rect x="1244.4799619717394" y="189.1846362731063" fill="#000" width="125.6640625" height="23" opacity="1"></rect></mask><g transform="translate(1244.4799619717396 189.1846362731063) rotate(0 62.832031250000114 11.5)"><text x="62.83203125" y="0" font-family="Helvetica, Segoe UI Emoji" font-size="20px" fill="#1e1e1e" text-anchor="middle" style="white-space: pre;" direction="ltr" dominant-baseline="text-before-edge">pagina dei tag</text></g><g stroke-linecap="round" transform="translate(1633.540459395802 262.7516301566634) rotate(0 110.57023373180743 59.46598292374006)"><path d="M29.73 0 C85.85 0, 141.97 0, 191.41 0 C211.23 0, 221.14 9.91, 221.14 29.73 C221.14 49.99, 221.14 70.25, 221.14 89.2 C221.14 109.02, 211.23 118.93, 191.41 118.93 C139.16 118.93, 86.92 118.93, 29.73 118.93 C9.91 118.93, 0 109.02, 0 89.2 C0 71.56, 0 53.92, 0 29.73 C0 9.91, 9.91 0, 29.73 0" stroke="none" stroke-width="0" fill="#fff5f5"></path><path d="M29.73 0 C90.99 0, 152.25 0, 191.41 0 M29.73 0 C94.26 0, 158.79 0, 191.41 0 M191.41 0 C211.23 0, 221.14 9.91, 221.14 29.73 M191.41 0 C211.23 0, 221.14 9.91, 221.14 29.73 M221.14 29.73 C221.14 52.76, 221.14 75.8, 221.14 89.2 M221.14 29.73 C221.14 48.71, 221.14 67.68, 221.14 89.2 M221.14 89.2 C221.14 109.02, 211.23 118.93, 191.41 118.93 M221.14 89.2 C221.14 109.02, 211.23 118.93, 191.41 118.93 M191.41 118.93 C142.85 118.93, 94.29 118.93, 29.73 118.93 M191.41 118.93 C130.16 118.93, 68.92 118.93, 29.73 118.93 M29.73 118.93 C9.91 118.93, 0 109.02, 0 89.2 M29.73 118.93 C9.91 118.93, 0 109.02, 0 89.2 M0 89.2 C0 74.3, 0 59.4, 0 29.73 M0 89.2 C0 76.96, 0 64.72, 0 29.73 M0 29.73 C0 9.91, 9.91 0, 29.73 0 M0 29.73 C0 9.91, 9.91 0, 29.73 0" stroke="#1e1e1e" stroke-width="4" fill="none"></path></g><g transform="translate(1687.4114743776095 310.71761308040345) rotate(0 56.699218750000114 11.5)"><text x="56.69921875" y="0" font-family="Helvetica, Segoe UI Emoji" font-size="20px" fill="#1e1e1e" text-anchor="middle" style="white-space: pre;" direction="ltr" dominant-baseline="text-before-edge">project_cake</text></g><g stroke-linecap="round"><g transform="translate(1471.6551192197558 316.22288989089) rotate(0 71.65236967769408 -0.06790577076817783)"><path d="M0 0 C23.88 -0.02, 119.42 -0.11, 143.3 -0.14 M0 0 C23.88 -0.02, 119.42 -0.11, 143.3 -0.14" stroke="#1e1e1e" stroke-width="4" fill="none"></path></g><g transform="translate(1471.6551192197558 316.22288989089) rotate(0 71.65236967769408 -0.06790577076817783)"><path d="M119.82 8.44 C128.11 5.41, 136.4 2.39, 143.3 -0.14 M119.82 8.44 C127.17 5.75, 134.53 3.07, 143.3 -0.14" stroke="#1e1e1e" stroke-width="4" fill="none"></path></g><g transform="translate(1471.6551192197558 316.22288989089) rotate(0 71.65236967769408 -0.06790577076817783)"><path d="M119.8 -8.66 C128.1 -5.65, 136.39 -2.64, 143.3 -0.14 M119.8 -8.66 C127.16 -5.99, 134.52 -3.32, 143.3 -0.14" stroke="#1e1e1e" stroke-width="4" fill="none"></path></g></g><mask></mask><g stroke-linecap="round" transform="translate(1532.6548266661282 36.027480735363326) rotate(0 82.88647567617772 42.5)"><path d="M165.77 42.5 C165.77 44.21, 165.57 45.93, 165.17 47.62 C164.77 49.32, 164.16 51.01, 163.36 52.67 C162.57 54.33, 161.57 55.97, 160.39 57.57 C159.21 59.17, 157.83 60.74, 156.28 62.25 C154.73 63.76, 152.99 65.24, 151.1 66.64 C149.21 68.05, 147.14 69.4, 144.93 70.68 C142.72 71.96, 140.34 73.18, 137.85 74.31 C135.36 75.44, 132.71 76.51, 129.97 77.48 C127.23 78.45, 124.35 79.34, 121.41 80.13 C118.46 80.93, 115.39 81.63, 112.28 82.24 C109.16 82.84, 105.96 83.36, 102.72 83.77 C99.49 84.17, 96.18 84.48, 92.88 84.69 C89.57 84.9, 86.22 85, 82.89 85 C79.56 85, 76.2 84.9, 72.9 84.69 C69.59 84.48, 66.28 84.17, 63.05 83.77 C59.82 83.36, 56.61 82.84, 53.49 82.24 C50.38 81.63, 47.32 80.93, 44.37 80.13 C41.42 79.34, 38.54 78.45, 35.8 77.48 C33.06 76.51, 30.42 75.44, 27.92 74.31 C25.43 73.18, 23.05 71.96, 20.85 70.68 C18.64 69.4, 16.56 68.05, 14.67 66.64 C12.78 65.24, 11.04 63.76, 9.49 62.25 C7.95 60.74, 6.57 59.17, 5.39 57.57 C4.21 55.97, 3.21 54.33, 2.41 52.67 C1.61 51.01, 1.01 49.32, 0.6 47.62 C0.2 45.93, 0 44.21, 0 42.5 C0 40.79, 0.2 39.07, 0.6 37.38 C1.01 35.68, 1.61 33.99, 2.41 32.33 C3.21 30.67, 4.21 29.03, 5.39 27.43 C6.57 25.83, 7.95 24.26, 9.49 22.75 C11.04 21.24, 12.78 19.76, 14.67 18.36 C16.56 16.95, 18.64 15.6, 20.85 14.32 C23.05 13.04, 25.43 11.82, 27.92 10.69 C30.42 9.56, 33.06 8.49, 35.8 7.52 C38.54 6.55, 41.42 5.66, 44.37 4.87 C47.32 4.07, 50.38 3.37, 53.49 2.76 C56.61 2.16, 59.82 1.64, 63.05 1.23 C66.28 0.83, 69.59 0.52, 72.9 0.31 C76.2 0.1, 79.56 0, 82.89 0 C86.22 0, 89.57 0.1, 92.88 0.31 C96.18 0.52, 99.49 0.83, 102.72 1.23 C105.96 1.64, 109.16 2.16, 112.28 2.76 C115.39 3.37, 118.46 4.07, 121.41 4.87 C124.35 5.66, 127.23 6.55, 129.97 7.52 C132.71 8.49, 135.36 9.56, 137.85 10.69 C140.34 11.82, 142.72 13.04, 144.93 14.32 C147.14 15.6, 149.21 16.95, 151.1 18.36 C152.99 19.76, 154.73 21.24, 156.28 22.75 C157.83 24.26, 159.21 25.83, 160.39 27.43 C161.57 29.03, 162.57 30.67, 163.36 32.33 C164.16 33.99, 164.77 35.68, 165.17 37.38 C165.57 39.07, 165.77 40.79, 165.77 42.5" stroke="none" stroke-width="0" fill="#e7f5ff"></path><path d="M165.77 42.5 C165.77 44.21, 165.57 45.93, 165.17 47.62 C164.77 49.32, 164.16 51.01, 163.36 52.67 C162.57 54.33, 161.57 55.97, 160.39 57.57 C159.21 59.17, 157.83 60.74, 156.28 62.25 C154.73 63.76, 152.99 65.24, 151.1 66.64 C149.21 68.05, 147.14 69.4, 144.93 70.68 C142.72 71.96, 140.34 73.18, 137.85 74.31 C135.36 75.44, 132.71 76.51, 129.97 77.48 C127.23 78.45, 124.35 79.34, 121.41 80.13 C118.46 80.93, 115.39 81.63, 112.28 82.24 C109.16 82.84, 105.96 83.36, 102.72 83.77 C99.49 84.17, 96.18 84.48, 92.88 84.69 C89.57 84.9, 86.22 85, 82.89 85 C79.56 85, 76.2 84.9, 72.9 84.69 C69.59 84.48, 66.28 84.17, 63.05 83.77 C59.82 83.36, 56.61 82.84, 53.49 82.24 C50.38 81.63, 47.32 80.93, 44.37 80.13 C41.42 79.34, 38.54 78.45, 35.8 77.48 C33.06 76.51, 30.42 75.44, 27.92 74.31 C25.43 73.18, 23.05 71.96, 20.85 70.68 C18.64 69.4, 16.56 68.05, 14.67 66.64 C12.78 65.24, 11.04 63.76, 9.49 62.25 C7.95 60.74, 6.57 59.17, 5.39 57.57 C4.21 55.97, 3.21 54.33, 2.41 52.67 C1.61 51.01, 1.01 49.32, 0.6 47.62 C0.2 45.93, 0 44.21, 0 42.5 C0 40.79, 0.2 39.07, 0.6 37.38 C1.01 35.68, 1.61 33.99, 2.41 32.33 C3.21 30.67, 4.21 29.03, 5.39 27.43 C6.57 25.83, 7.95 24.26, 9.49 22.75 C11.04 21.24, 12.78 19.76, 14.67 18.36 C16.56 16.95, 18.64 15.6, 20.85 14.32 C23.05 13.04, 25.43 11.82, 27.92 10.69 C30.42 9.56, 33.06 8.49, 35.8 7.52 C38.54 6.55, 41.42 5.66, 44.37 4.87 C47.32 4.07, 50.38 3.37, 53.49 2.76 C56.61 2.16, 59.82 1.64, 63.05 1.23 C66.28 0.83, 69.59 0.52, 72.9 0.31 C76.2 0.1, 79.56 0, 82.89 0 C86.22 0, 89.57 0.1, 92.88 0.31 C96.18 0.52, 99.49 0.83, 102.72 1.23 C105.96 1.64, 109.16 2.16, 112.28 2.76 C115.39 3.37, 118.46 4.07, 121.41 4.87 C124.35 5.66, 127.23 6.55, 129.97 7.52 C132.71 8.49, 135.36 9.56, 137.85 10.69 C140.34 11.82, 142.72 13.04, 144.93 14.32 C147.14 15.6, 149.21 16.95, 151.1 18.36 C152.99 19.76, 154.73 21.24, 156.28 22.75 C157.83 24.26, 159.21 25.83, 160.39 27.43 C161.57 29.03, 162.57 30.67, 163.36 32.33 C164.16 33.99, 164.77 35.68, 165.17 37.38 C165.57 39.07, 165.77 40.79, 165.77 42.5" stroke="#1e1e1e" stroke-width="4" fill="none"></path></g><g transform="translate(1575.4170648855268 55.47544253493504) rotate(0 40.0146484375 23)"><text x="40.0146484375" y="0" font-family="Helvetica, Segoe UI Emoji" font-size="20px" fill="#1e1e1e" text-anchor="middle" style="white-space: pre;" direction="ltr" dominant-baseline="text-before-edge">modifica </text><text x="40.0146484375" y="23" font-family="Helvetica, Segoe UI Emoji" font-size="20px" fill="#1e1e1e" text-anchor="middle" style="white-space: pre;" direction="ltr" dominant-baseline="text-before-edge">tag</text></g><g stroke-linecap="round"><g transform="translate(1437.699077733698 75.22396782403104) rotate(0 42.35766933546711 -0.11322585249300232)"><path d="M0 0 C14.12 -0.04, 70.6 -0.19, 84.72 -0.23 M0 0 C14.12 -0.04, 70.6 -0.19, 84.72 -0.23" stroke="#1e1e1e" stroke-width="4" fill="none"></path></g><g transform="translate(1437.699077733698 75.22396782403104) rotate(0 42.35766933546711 -0.11322585249300232)"><path d="M61.25 8.39 C70.56 4.97, 79.87 1.55, 84.72 -0.23 M61.25 8.39 C66.72 6.38, 72.19 4.37, 84.72 -0.23" stroke="#1e1e1e" stroke-width="4" fill="none"></path></g><g transform="translate(1437.699077733698 75.22396782403104) rotate(0 42.35766933546711 -0.11322585249300232)"><path d="M61.2 -8.71 C70.53 -5.35, 79.86 -1.98, 84.72 -0.23 M61.2 -8.71 C66.69 -6.73, 72.17 -4.75, 84.72 -0.23" stroke="#1e1e1e" stroke-width="4" fill="none"></path></g></g><mask></mask><g stroke-linecap="round" transform="translate(537.8712744486104 85.51507403480622) rotate(0 74.97853650594323 48.481805260221705)"><path d="M149.96 48.48 C149.96 50.43, 149.77 52.39, 149.41 54.33 C149.05 56.26, 148.5 58.19, 147.78 60.08 C147.06 61.98, 146.15 63.85, 145.08 65.67 C144.02 67.5, 142.77 69.29, 141.37 71.01 C139.97 72.74, 138.4 74.42, 136.68 76.02 C134.97 77.63, 133.1 79.17, 131.1 80.63 C129.1 82.09, 126.95 83.48, 124.7 84.77 C122.44 86.06, 120.05 87.27, 117.57 88.38 C115.09 89.49, 112.49 90.51, 109.82 91.41 C107.16 92.32, 104.38 93.12, 101.57 93.81 C98.75 94.5, 95.85 95.09, 92.92 95.55 C90 96.02, 87.01 96.38, 84.02 96.61 C81.03 96.84, 77.99 96.96, 74.98 96.96 C71.97 96.96, 68.93 96.84, 65.94 96.61 C62.95 96.38, 59.96 96.02, 57.03 95.55 C54.11 95.09, 51.21 94.5, 48.39 93.81 C45.57 93.12, 42.8 92.32, 40.13 91.41 C37.47 90.51, 34.87 89.49, 32.39 88.38 C29.91 87.27, 27.51 86.06, 25.26 84.77 C23 83.48, 20.85 82.09, 18.86 80.63 C16.86 79.17, 14.98 77.63, 13.27 76.02 C11.56 74.42, 9.99 72.74, 8.59 71.01 C7.19 69.29, 5.94 67.5, 4.87 65.67 C3.8 63.85, 2.9 61.98, 2.18 60.08 C1.46 58.19, 0.91 56.26, 0.55 54.33 C0.18 52.39, 0 50.43, 0 48.48 C0 46.53, 0.18 44.57, 0.55 42.64 C0.91 40.7, 1.46 38.77, 2.18 36.88 C2.9 34.99, 3.8 33.11, 4.87 31.29 C5.94 29.47, 7.19 27.68, 8.59 25.95 C9.99 24.23, 11.56 22.54, 13.27 20.94 C14.98 19.34, 16.86 17.79, 18.86 16.33 C20.85 14.87, 23 13.48, 25.26 12.19 C27.51 10.9, 29.91 9.69, 32.39 8.58 C34.87 7.48, 37.47 6.46, 40.13 5.55 C42.8 4.65, 45.57 3.84, 48.39 3.15 C51.21 2.46, 54.11 1.87, 57.03 1.41 C59.96 0.94, 62.95 0.59, 65.94 0.35 C68.93 0.12, 71.97 0, 74.98 0 C77.99 0, 81.03 0.12, 84.02 0.35 C87.01 0.59, 90 0.94, 92.92 1.41 C95.85 1.87, 98.75 2.46, 101.57 3.15 C104.38 3.84, 107.16 4.65, 109.82 5.55 C112.49 6.46, 115.09 7.48, 117.57 8.58 C120.05 9.69, 122.44 10.9, 124.7 12.19 C126.95 13.48, 129.1 14.87, 131.1 16.33 C133.1 17.79, 134.97 19.34, 136.68 20.94 C138.4 22.54, 139.97 24.23, 141.37 25.95 C142.77 27.68, 144.02 29.47, 145.08 31.29 C146.15 33.11, 147.06 34.99, 147.78 36.88 C148.5 38.77, 149.05 40.7, 149.41 42.64 C149.77 44.57, 149.96 46.53, 149.96 48.48" stroke="none" stroke-width="0" fill="#e7f5ff"></path><path d="M149.96 48.48 C149.96 50.43, 149.77 52.39, 149.41 54.33 C149.05 56.26, 148.5 58.19, 147.78 60.08 C147.06 61.98, 146.15 63.85, 145.08 65.67 C144.02 67.5, 142.77 69.29, 141.37 71.01 C139.97 72.74, 138.4 74.42, 136.68 76.02 C134.97 77.63, 133.1 79.17, 131.1 80.63 C129.1 82.09, 126.95 83.48, 124.7 84.77 C122.44 86.06, 120.05 87.27, 117.57 88.38 C115.09 89.49, 112.49 90.51, 109.82 91.41 C107.16 92.32, 104.38 93.12, 101.57 93.81 C98.75 94.5, 95.85 95.09, 92.92 95.55 C90 96.02, 87.01 96.38, 84.02 96.61 C81.03 96.84, 77.99 96.96, 74.98 96.96 C71.97 96.96, 68.93 96.84, 65.94 96.61 C62.95 96.38, 59.96 96.02, 57.03 95.55 C54.11 95.09, 51.21 94.5, 48.39 93.81 C45.57 93.12, 42.8 92.32, 40.13 91.41 C37.47 90.51, 34.87 89.49, 32.39 88.38 C29.91 87.27, 27.51 86.06, 25.26 84.77 C23 83.48, 20.85 82.09, 18.86 80.63 C16.86 79.17, 14.98 77.63, 13.27 76.02 C11.56 74.42, 9.99 72.74, 8.59 71.01 C7.19 69.29, 5.94 67.5, 4.87 65.67 C3.8 63.85, 2.9 61.98, 2.18 60.08 C1.46 58.19, 0.91 56.26, 0.55 54.33 C0.18 52.39, 0 50.43, 0 48.48 C0 46.53, 0.18 44.57, 0.55 42.64 C0.91 40.7, 1.46 38.77, 2.18 36.88 C2.9 34.99, 3.8 33.11, 4.87 31.29 C5.94 29.47, 7.19 27.68, 8.59 25.95 C9.99 24.23, 11.56 22.54, 13.27 20.94 C14.98 19.34, 16.86 17.79, 18.86 16.33 C20.85 14.87, 23 13.48, 25.26 12.19 C27.51 10.9, 29.91 9.69, 32.39 8.58 C34.87 7.48, 37.47 6.46, 40.13 5.55 C42.8 4.65, 45.57 3.84, 48.39 3.15 C51.21 2.46, 54.11 1.87, 57.03 1.41 C59.96 0.94, 62.95 0.59, 65.94 0.35 C68.93 0.12, 71.97 0, 74.98 0 C77.99 0, 81.03 0.12, 84.02 0.35 C87.01 0.59, 90 0.94, 92.92 1.41 C95.85 1.87, 98.75 2.46, 101.57 3.15 C104.38 3.84, 107.16 4.65, 109.82 5.55 C112.49 6.46, 115.09 7.48, 117.57 8.58 C120.05 9.69, 122.44 10.9, 124.7 12.19 C126.95 13.48, 129.1 14.87, 131.1 16.33 C133.1 17.79, 134.97 19.34, 136.68 20.94 C138.4 22.54, 139.97 24.23, 141.37 25.95 C142.77 27.68, 144.02 29.47, 145.08 31.29 C146.15 33.11, 147.06 34.99, 147.78 36.88 C148.5 38.77, 149.05 40.7, 149.41 42.64 C149.77 44.57, 149.96 46.53, 149.96 48.48" stroke="#1e1e1e" stroke-width="4" fill="none"></path></g><g transform="translate(572.8173309102581 111.21506603135953) rotate(0 40.0146484375 23)"><text x="40.0146484375" y="0" font-family="Helvetica, Segoe UI Emoji" font-size="20px" fill="#1e1e1e" text-anchor="middle" style="white-space: pre;" direction="ltr" dominant-baseline="text-before-edge">modifica </text><text x="40.0146484375" y="23" font-family="Helvetica, Segoe UI Emoji" font-size="20px" fill="#1e1e1e" text-anchor="middle" style="white-space: pre;" direction="ltr" dominant-baseline="text-before-edge">account</text></g><g stroke-linecap="round"><g transform="translate(710.2600145649777 238.3685389139181) rotate(0 -22.16871166250553 -31.086125103400875)"><path d="M0 0 C-7.39 -10.36, -36.95 -51.81, -44.34 -62.17 M0 0 C-7.39 -10.36, -36.95 -51.81, -44.34 -62.17" stroke="#1e1e1e" stroke-width="4" fill="none"></path></g><g transform="translate(710.2600145649777 238.3685389139181) rotate(0 -22.16871166250553 -31.086125103400875)"><path d="M-23.74 -48.01 C-28.22 -51.1, -32.71 -54.18, -44.34 -62.17 M-23.74 -48.01 C-28.25 -51.12, -32.77 -54.22, -44.34 -62.17" stroke="#1e1e1e" stroke-width="4" fill="none"></path></g><g transform="translate(710.2600145649777 238.3685389139181) rotate(0 -22.16871166250553 -31.086125103400875)"><path d="M-37.66 -38.08 C-39.11 -43.33, -40.57 -48.58, -44.34 -62.17 M-37.66 -38.08 C-39.12 -43.36, -40.59 -48.65, -44.34 -62.17" stroke="#1e1e1e" stroke-width="4" fill="none"></path></g></g><mask></mask><g stroke-linecap="round" transform="translate(1256.224591313811 492.2983653584986) rotate(0 78.34138107002957 42.66131363900095)"><path d="M156.68 42.66 C156.68 44.38, 156.49 46.1, 156.11 47.8 C155.73 49.51, 155.16 51.21, 154.41 52.87 C153.65 54.54, 152.71 56.19, 151.59 57.79 C150.48 59.39, 149.17 60.97, 147.71 62.49 C146.25 64, 144.6 65.49, 142.82 66.9 C141.03 68.31, 139.07 69.67, 136.98 70.95 C134.89 72.23, 132.65 73.46, 130.29 74.59 C127.94 75.73, 125.43 76.8, 122.84 77.77 C120.25 78.74, 117.54 79.64, 114.75 80.44 C111.96 81.23, 109.06 81.94, 106.12 82.55 C103.18 83.16, 100.15 83.67, 97.09 84.08 C94.03 84.49, 90.91 84.8, 87.78 85.01 C84.66 85.22, 81.49 85.32, 78.34 85.32 C75.19 85.32, 72.02 85.22, 68.9 85.01 C65.77 84.8, 62.65 84.49, 59.59 84.08 C56.54 83.67, 53.5 83.16, 50.56 82.55 C47.62 81.94, 44.72 81.23, 41.93 80.44 C39.15 79.64, 36.43 78.74, 33.84 77.77 C31.25 76.8, 28.75 75.73, 26.39 74.59 C24.04 73.46, 21.79 72.23, 19.7 70.95 C17.61 69.67, 15.66 68.31, 13.87 66.9 C12.08 65.49, 10.44 64, 8.97 62.49 C7.51 60.97, 6.21 59.39, 5.09 57.79 C3.97 56.19, 3.03 54.54, 2.28 52.87 C1.52 51.21, 0.95 49.51, 0.57 47.8 C0.19 46.1, 0 44.38, 0 42.66 C0 40.95, 0.19 39.22, 0.57 37.52 C0.95 35.82, 1.52 34.12, 2.28 32.45 C3.03 30.79, 3.97 29.14, 5.09 27.53 C6.21 25.93, 7.51 24.35, 8.97 22.84 C10.44 21.32, 12.08 19.84, 13.87 18.43 C15.66 17.02, 17.61 15.65, 19.7 14.37 C21.79 13.09, 24.04 11.87, 26.39 10.73 C28.75 9.59, 31.25 8.53, 33.84 7.55 C36.43 6.58, 39.15 5.68, 41.93 4.89 C44.72 4.09, 47.62 3.38, 50.56 2.77 C53.5 2.16, 56.54 1.65, 59.59 1.24 C62.65 0.83, 65.77 0.52, 68.9 0.31 C72.02 0.1, 75.19 0, 78.34 0 C81.49 0, 84.66 0.1, 87.78 0.31 C90.91 0.52, 94.03 0.83, 97.09 1.24 C100.15 1.65, 103.18 2.16, 106.12 2.77 C109.06 3.38, 111.96 4.09, 114.75 4.89 C117.54 5.68, 120.25 6.58, 122.84 7.55 C125.43 8.53, 127.94 9.59, 130.29 10.73 C132.65 11.87, 134.89 13.09, 136.98 14.37 C139.07 15.65, 141.03 17.02, 142.82 18.43 C144.6 19.84, 146.25 21.32, 147.71 22.84 C149.17 24.35, 150.48 25.93, 151.59 27.53 C152.71 29.14, 153.65 30.79, 154.41 32.45 C155.16 34.12, 155.73 35.82, 156.11 37.52 C156.49 39.22, 156.68 40.95, 156.68 42.66" stroke="none" stroke-width="0" fill="#e7f5ff"></path><path d="M156.68 42.66 C156.68 44.38, 156.49 46.1, 156.11 47.8 C155.73 49.51, 155.16 51.21, 154.41 52.87 C153.65 54.54, 152.71 56.19, 151.59 57.79 C150.48 59.39, 149.17 60.97, 147.71 62.49 C146.25 64, 144.6 65.49, 142.82 66.9 C141.03 68.31, 139.07 69.67, 136.98 70.95 C134.89 72.23, 132.65 73.46, 130.29 74.59 C127.94 75.73, 125.43 76.8, 122.84 77.77 C120.25 78.74, 117.54 79.64, 114.75 80.44 C111.96 81.23, 109.06 81.94, 106.12 82.55 C103.18 83.16, 100.15 83.67, 97.09 84.08 C94.03 84.49, 90.91 84.8, 87.78 85.01 C84.66 85.22, 81.49 85.32, 78.34 85.32 C75.19 85.32, 72.02 85.22, 68.9 85.01 C65.77 84.8, 62.65 84.49, 59.59 84.08 C56.54 83.67, 53.5 83.16, 50.56 82.55 C47.62 81.94, 44.72 81.23, 41.93 80.44 C39.15 79.64, 36.43 78.74, 33.84 77.77 C31.25 76.8, 28.75 75.73, 26.39 74.59 C24.04 73.46, 21.79 72.23, 19.7 70.95 C17.61 69.67, 15.66 68.31, 13.87 66.9 C12.08 65.49, 10.44 64, 8.97 62.49 C7.51 60.97, 6.21 59.39, 5.09 57.79 C3.97 56.19, 3.03 54.54, 2.28 52.87 C1.52 51.21, 0.95 49.51, 0.57 47.8 C0.19 46.1, 0 44.38, 0 42.66 C0 40.95, 0.19 39.22, 0.57 37.52 C0.95 35.82, 1.52 34.12, 2.28 32.45 C3.03 30.79, 3.97 29.14, 5.09 27.53 C6.21 25.93, 7.51 24.35, 8.97 22.84 C10.44 21.32, 12.08 19.84, 13.87 18.43 C15.66 17.02, 17.61 15.65, 19.7 14.37 C21.79 13.09, 24.04 11.87, 26.39 10.73 C28.75 9.59, 31.25 8.53, 33.84 7.55 C36.43 6.58, 39.15 5.68, 41.93 4.89 C44.72 4.09, 47.62 3.38, 50.56 2.77 C53.5 2.16, 56.54 1.65, 59.59 1.24 C62.65 0.83, 65.77 0.52, 68.9 0.31 C72.02 0.1, 75.19 0, 78.34 0 C81.49 0, 84.66 0.1, 87.78 0.31 C90.91 0.52, 94.03 0.83, 97.09 1.24 C100.15 1.65, 103.18 2.16, 106.12 2.77 C109.06 3.38, 111.96 4.09, 114.75 4.89 C117.54 5.68, 120.25 6.58, 122.84 7.55 C125.43 8.53, 127.94 9.59, 130.29 10.73 C132.65 11.87, 134.89 13.09, 136.98 14.37 C139.07 15.65, 141.03 17.02, 142.82 18.43 C144.6 19.84, 146.25 21.32, 147.71 22.84 C149.17 24.35, 150.48 25.93, 151.59 27.53 C152.71 29.14, 153.65 30.79, 154.41 32.45 C155.16 34.12, 155.73 35.82, 156.11 37.52 C156.49 39.22, 156.68 40.95, 156.68 42.66" stroke="#1e1e1e" stroke-width="4" fill="none"></path></g><g transform="translate(1308.5423208942034 523.2935748290358) rotate(0 26.1279296875 11.5)"><text x="26.1279296875" y="0" font-family="Helvetica, Segoe UI Emoji" font-size="20px" fill="#1e1e1e" text-anchor="middle" style="white-space: pre;" direction="ltr" dominant-baseline="text-before-edge">azioni</text></g><g stroke-linecap="round"><g transform="translate(1339.7211674919413 395.8601960394639) rotate(0 0.4638029300932658 43.4063037872775)"><path d="M0 0 C0.15 14.47, 0.77 72.34, 0.93 86.81 M0 0 C0.15 14.47, 0.77 72.34, 0.93 86.81" stroke="#1e1e1e" stroke-width="4" fill="none"></path></g><g transform="translate(1339.7211674919413 395.8601960394639) rotate(0 0.4638029300932658 43.4063037872775)"><path d="M-7.87 63.41 C-5.82 68.87, -3.77 74.33, 0.93 86.81 M-7.87 63.41 C-4.96 71.15, -2.05 78.89, 0.93 86.81" stroke="#1e1e1e" stroke-width="4" fill="none"></path></g><g transform="translate(1339.7211674919413 395.8601960394639) rotate(0 0.4638029300932658 43.4063037872775)"><path d="M9.23 63.23 C7.29 68.73, 5.35 74.24, 0.93 86.81 M9.23 63.23 C6.48 71.03, 3.74 78.83, 0.93 86.81" stroke="#1e1e1e" stroke-width="4" fill="none"></path></g></g><mask></mask><g stroke-linecap="round"><g transform="translate(1287.2315346996938 577.1540507609079) rotate(0 -44.31412239896201 33.196548966133335)"><path d="M0 0 C-14.77 11.07, -73.86 55.33, -88.63 66.39 M0 0 C-14.77 11.07, -73.86 55.33, -88.63 66.39" stroke="#1e1e1e" stroke-width="4" fill="none"></path></g><g transform="translate(1287.2315346996938 577.1540507609079) rotate(0 -44.31412239896201 33.196548966133335)"><path d="M-74.95 45.47 C-80.29 53.63, -85.62 61.79, -88.63 66.39 M-74.95 45.47 C-78.48 50.86, -82 56.25, -88.63 66.39" stroke="#1e1e1e" stroke-width="4" fill="none"></path></g><g transform="translate(1287.2315346996938 577.1540507609079) rotate(0 -44.31412239896201 33.196548966133335)"><path d="M-64.7 59.15 C-74.03 61.98, -83.36 64.8, -88.63 66.39 M-64.7 59.15 C-70.86 61.02, -77.03 62.88, -88.63 66.39" stroke="#1e1e1e" stroke-width="4" fill="none"></path></g></g><mask></mask><g stroke-linecap="round"><g transform="translate(1335.708653610635 590.4420164209048) rotate(0 0.07082169623686241 22.438331727319934)"><path d="M0 0 C0.02 7.48, 0.12 37.4, 0.14 44.88 M0 0 C0.02 7.48, 0.12 37.4, 0.14 44.88" stroke="#1e1e1e" stroke-width="4" fill="none"></path></g><g transform="translate(1335.708653610635 590.4420164209048) rotate(0 0.07082169623686241 22.438331727319934)"><path d="M-7.6 23.82 C-5.94 28.33, -4.28 32.85, 0.14 44.88 M-7.6 23.82 C-4.52 32.18, -1.45 40.55, 0.14 44.88" stroke="#1e1e1e" stroke-width="4" fill="none"></path></g><g transform="translate(1335.708653610635 590.4420164209048) rotate(0 0.07082169623686241 22.438331727319934)"><path d="M7.75 23.77 C6.12 28.29, 4.49 32.82, 0.14 44.88 M7.75 23.77 C4.73 32.15, 1.7 40.54, 0.14 44.88" stroke="#1e1e1e" stroke-width="4" fill="none"></path></g></g><mask></mask><g stroke-linecap="round"><g transform="translate(1246.7977174495984 531.7692592761056) rotate(0 -20.97586269786052 1.2855113799101758)"><path d="M0 0 C-6.99 0.43, -34.96 2.14, -41.95 2.57 M0 0 C-6.99 0.43, -34.96 2.14, -41.95 2.57" stroke="#1e1e1e" stroke-width="4" fill="none"></path></g><g transform="translate(1246.7977174495984 531.7692592761056) rotate(0 -20.97586269786052 1.2855113799101758)"><path d="M-22.68 -5.81 C-27.68 -3.64, -32.68 -1.46, -41.95 2.57 M-22.68 -5.81 C-29.63 -2.79, -36.58 0.23, -41.95 2.57" stroke="#1e1e1e" stroke-width="4" fill="none"></path></g><g transform="translate(1246.7977174495984 531.7692592761056) rotate(0 -20.97586269786052 1.2855113799101758)"><path d="M-21.8 8.54 C-27.03 6.99, -32.26 5.44, -41.95 2.57 M-21.8 8.54 C-29.07 6.39, -36.34 4.23, -41.95 2.57" stroke="#1e1e1e" stroke-width="4" fill="none"></path></g></g><mask></mask><g stroke-linecap="round"><g transform="translate(1615.810649760526 354.61985287541034) rotate(0 -108.03526580282983 74.9248762967497)"><path d="M0 0 C-36.01 24.97, -180.06 124.87, -216.07 149.85 M0 0 C-36.01 24.97, -180.06 124.87, -216.07 149.85" stroke="#1e1e1e" stroke-width="4" fill="none"></path></g><g transform="translate(1615.810649760526 354.61985287541034) rotate(0 -108.03526580282983 74.9248762967497)"><path d="M-201.64 129.44 C-207.23 137.34, -212.82 145.25, -216.07 149.85 M-201.64 129.44 C-206.24 135.95, -210.85 142.46, -216.07 149.85" stroke="#1e1e1e" stroke-width="4" fill="none"></path></g><g transform="translate(1615.810649760526 354.61985287541034) rotate(0 -108.03526580282983 74.9248762967497)"><path d="M-191.89 143.49 C-201.26 145.95, -210.62 148.42, -216.07 149.85 M-191.89 143.49 C-199.61 145.52, -207.32 147.55, -216.07 149.85" stroke="#1e1e1e" stroke-width="4" fill="none"></path></g></g><mask></mask><g stroke-linecap="round"><g transform="translate(1407.1926124010245 566.6801175161712) rotate(0 51.029262285649565 36.5517567796207)"><path d="M0 0 C17.01 12.18, 85.05 60.92, 102.06 73.1 M0 0 C17.01 12.18, 85.05 60.92, 102.06 73.1" stroke="#1e1e1e" stroke-width="4" fill="none"></path></g><g transform="translate(1407.1926124010245 566.6801175161712) rotate(0 51.029262285649565 36.5517567796207)"><path d="M77.98 66.37 C84.25 68.13, 90.53 69.88, 102.06 73.1 M77.98 66.37 C84.34 68.15, 90.7 69.93, 102.06 73.1" stroke="#1e1e1e" stroke-width="4" fill="none"></path></g><g transform="translate(1407.1926124010245 566.6801175161712) rotate(0 51.029262285649565 36.5517567796207)"><path d="M87.94 52.47 C91.62 57.85, 95.3 63.22, 102.06 73.1 M87.94 52.47 C91.67 57.92, 95.4 63.37, 102.06 73.1" stroke="#1e1e1e" stroke-width="4" fill="none"></path></g></g><mask></mask><g stroke-linecap="round" transform="translate(1504.011283067775 630.3469528667978) rotate(0 77.98551186544955 49.67122045405338)"><path d="M155.97 49.67 C155.97 51.67, 155.78 53.68, 155.4 55.66 C155.02 57.64, 154.45 59.62, 153.7 61.56 C152.96 63.5, 152.01 65.42, 150.9 67.28 C149.79 69.15, 148.49 70.99, 147.04 72.75 C145.58 74.52, 143.95 76.25, 142.17 77.89 C140.39 79.53, 138.44 81.12, 136.36 82.61 C134.28 84.1, 132.04 85.53, 129.7 86.85 C127.35 88.17, 124.87 89.42, 122.29 90.55 C119.71 91.68, 117 92.73, 114.23 93.65 C111.45 94.58, 108.57 95.41, 105.64 96.11 C102.71 96.82, 99.69 97.42, 96.65 97.9 C93.61 98.38, 90.5 98.74, 87.39 98.98 C84.28 99.22, 81.12 99.34, 77.99 99.34 C74.85 99.34, 71.7 99.22, 68.59 98.98 C65.47 98.74, 62.36 98.38, 59.32 97.9 C56.28 97.42, 53.26 96.82, 50.33 96.11 C47.4 95.41, 44.52 94.58, 41.74 93.65 C38.97 92.73, 36.26 91.68, 33.68 90.55 C31.11 89.42, 28.62 88.17, 26.27 86.85 C23.93 85.53, 21.69 84.1, 19.61 82.61 C17.53 81.12, 15.58 79.53, 13.8 77.89 C12.02 76.25, 10.39 74.52, 8.93 72.75 C7.48 70.99, 6.18 69.15, 5.07 67.28 C3.96 65.42, 3.02 63.5, 2.27 61.56 C1.52 59.62, 0.95 57.64, 0.57 55.66 C0.19 53.68, 0 51.67, 0 49.67 C0 47.68, 0.19 45.67, 0.57 43.68 C0.95 41.7, 1.52 39.72, 2.27 37.78 C3.02 35.85, 3.96 33.92, 5.07 32.06 C6.18 30.19, 7.48 28.35, 8.93 26.59 C10.39 24.82, 12.02 23.1, 13.8 21.45 C15.58 19.81, 17.53 18.23, 19.61 16.73 C21.69 15.24, 23.93 13.82, 26.27 12.49 C28.62 11.17, 31.11 9.93, 33.68 8.79 C36.26 7.66, 38.97 6.62, 41.74 5.69 C44.52 4.76, 47.4 3.94, 50.33 3.23 C53.26 2.52, 56.28 1.92, 59.32 1.44 C62.36 0.97, 65.47 0.6, 68.59 0.36 C71.7 0.12, 74.85 0, 77.99 0 C81.12 0, 84.28 0.12, 87.39 0.36 C90.5 0.6, 93.61 0.97, 96.65 1.44 C99.69 1.92, 102.71 2.52, 105.64 3.23 C108.57 3.94, 111.45 4.76, 114.23 5.69 C117 6.62, 119.71 7.66, 122.29 8.79 C124.87 9.93, 127.35 11.17, 129.7 12.49 C132.04 13.82, 134.28 15.24, 136.36 16.73 C138.44 18.23, 140.39 19.81, 142.17 21.45 C143.95 23.1, 145.58 24.82, 147.04 26.59 C148.49 28.35, 149.79 30.19, 150.9 32.06 C152.01 33.92, 152.96 35.85, 153.7 37.78 C154.45 39.72, 155.02 41.7, 155.4 43.68 C155.78 45.67, 155.97 47.68, 155.97 49.67" stroke="none" stroke-width="0" fill="#e7f5ff"></path><path d="M155.97 49.67 C155.97 51.67, 155.78 53.68, 155.4 55.66 C155.02 57.64, 154.45 59.62, 153.7 61.56 C152.96 63.5, 152.01 65.42, 150.9 67.28 C149.79 69.15, 148.49 70.99, 147.04 72.75 C145.58 74.52, 143.95 76.25, 142.17 77.89 C140.39 79.53, 138.44 81.12, 136.36 82.61 C134.28 84.1, 132.04 85.53, 129.7 86.85 C127.35 88.17, 124.87 89.42, 122.29 90.55 C119.71 91.68, 117 92.73, 114.23 93.65 C111.45 94.58, 108.57 95.41, 105.64 96.11 C102.71 96.82, 99.69 97.42, 96.65 97.9 C93.61 98.38, 90.5 98.74, 87.39 98.98 C84.28 99.22, 81.12 99.34, 77.99 99.34 C74.85 99.34, 71.7 99.22, 68.59 98.98 C65.47 98.74, 62.36 98.38, 59.32 97.9 C56.28 97.42, 53.26 96.82, 50.33 96.11 C47.4 95.41, 44.52 94.58, 41.74 93.65 C38.97 92.73, 36.26 91.68, 33.68 90.55 C31.11 89.42, 28.62 88.17, 26.27 86.85 C23.93 85.53, 21.69 84.1, 19.61 82.61 C17.53 81.12, 15.58 79.53, 13.8 77.89 C12.02 76.25, 10.39 74.52, 8.93 72.75 C7.48 70.99, 6.18 69.15, 5.07 67.28 C3.96 65.42, 3.02 63.5, 2.27 61.56 C1.52 59.62, 0.95 57.64, 0.57 55.66 C0.19 53.68, 0 51.67, 0 49.67 C0 47.68, 0.19 45.67, 0.57 43.68 C0.95 41.7, 1.52 39.72, 2.27 37.78 C3.02 35.85, 3.96 33.92, 5.07 32.06 C6.18 30.19, 7.48 28.35, 8.93 26.59 C10.39 24.82, 12.02 23.1, 13.8 21.45 C15.58 19.81, 17.53 18.23, 19.61 16.73 C21.69 15.24, 23.93 13.82, 26.27 12.49 C28.62 11.17, 31.11 9.93, 33.68 8.79 C36.26 7.66, 38.97 6.62, 41.74 5.69 C44.52 4.76, 47.4 3.94, 50.33 3.23 C53.26 2.52, 56.28 1.92, 59.32 1.44 C62.36 0.97, 65.47 0.6, 68.59 0.36 C71.7 0.12, 74.85 0, 77.99 0 C81.12 0, 84.28 0.12, 87.39 0.36 C90.5 0.6, 93.61 0.97, 96.65 1.44 C99.69 1.92, 102.71 2.52, 105.64 3.23 C108.57 3.94, 111.45 4.76, 114.23 5.69 C117 6.62, 119.71 7.66, 122.29 8.79 C124.87 9.93, 127.35 11.17, 129.7 12.49 C132.04 13.82, 134.28 15.24, 136.36 16.73 C138.44 18.23, 140.39 19.81, 142.17 21.45 C143.95 23.1, 145.58 24.82, 147.04 26.59 C148.49 28.35, 149.79 30.19, 150.9 32.06 C152.01 33.92, 152.96 35.85, 153.7 37.78 C154.45 39.72, 155.02 41.7, 155.4 43.68 C155.78 45.67, 155.97 47.68, 155.97 49.67" stroke="#1e1e1e" stroke-width="4" fill="none"></path></g><g transform="translate(1536.823413783861 656.8953165079781) rotate(0 45.029296875 23)"><text x="45.029296875" y="0" font-family="Helvetica, Segoe UI Emoji" font-size="20px" fill="#1e1e1e" text-anchor="middle" style="white-space: pre;" direction="ltr" dominant-baseline="text-before-edge">seleziona </text><text x="45.029296875" y="23" font-family="Helvetica, Segoe UI Emoji" font-size="20px" fill="#1e1e1e" text-anchor="middle" style="white-space: pre;" direction="ltr" dominant-baseline="text-before-edge">tag</text></g><g stroke-linecap="round" transform="translate(1609.8628761700525 434.258336410611) rotate(0 148.01292849827416 64.99031493846462)"><path d="M32 0 C87.78 0, 143.56 0, 264.03 0 C285.36 0, 296.03 10.67, 296.03 32 C296.03 47.46, 296.03 62.93, 296.03 97.98 C296.03 119.31, 285.36 129.98, 264.03 129.98 C197.47 129.98, 130.92 129.98, 32 129.98 C10.67 129.98, 0 119.31, 0 97.98 C0 72.04, 0 46.09, 0 32 C0 10.67, 10.67 0, 32 0" stroke="none" stroke-width="0" fill="#fff5f5"></path><path d="M32 0 C110.61 0, 189.22 0, 264.03 0 M32 0 C86.72 0, 141.44 0, 264.03 0 M264.03 0 C285.36 0, 296.03 10.67, 296.03 32 M264.03 0 C285.36 0, 296.03 10.67, 296.03 32 M296.03 32 C296.03 48.03, 296.03 64.06, 296.03 97.98 M296.03 32 C296.03 51.06, 296.03 70.13, 296.03 97.98 M296.03 97.98 C296.03 119.31, 285.36 129.98, 264.03 129.98 M296.03 97.98 C296.03 119.31, 285.36 129.98, 264.03 129.98 M264.03 129.98 C186 129.98, 107.97 129.98, 32 129.98 M264.03 129.98 C209.98 129.98, 155.94 129.98, 32 129.98 M32 129.98 C10.67 129.98, 0 119.31, 0 97.98 M32 129.98 C10.67 129.98, 0 119.31, 0 97.98 M0 97.98 C0 75.22, 0 52.47, 0 32 M0 97.98 C0 81.17, 0 64.37, 0 32 M0 32 C0 10.67, 10.67 0, 32 0 M0 32 C0 10.67, 10.67 0, 32 0" stroke="#1e1e1e" stroke-width="4" fill="none"></path></g><g transform="translate(1664.4773671683265 487.7486513490756) rotate(0 93.39843750000011 11.5)"><text x="93.3984375" y="0" font-family="Helvetica, Segoe UI Emoji" font-size="20px" fill="#1e1e1e" text-anchor="middle" style="white-space: pre;" direction="ltr" dominant-baseline="text-before-edge">project_page_filtered</text></g><g stroke-linecap="round"><g transform="translate(1613.5710089644547 627.2702808138858) rotate(0 18.488753708793865 -26.738889416459017)"><path d="M0 0 C6.16 -8.91, 30.81 -44.56, 36.98 -53.48 M0 0 C6.16 -8.91, 30.81 -44.56, 36.98 -53.48" stroke="#1e1e1e" stroke-width="4" fill="none"></path></g><g transform="translate(1613.5710089644547 627.2702808138858) rotate(0 18.488753708793865 -26.738889416459017)"><path d="M30.65 -29.29 C32.46 -36.21, 34.27 -43.13, 36.98 -53.48 M30.65 -29.29 C32.42 -36.07, 34.19 -42.84, 36.98 -53.48" stroke="#1e1e1e" stroke-width="4" fill="none"></path></g><g transform="translate(1613.5710089644547 627.2702808138858) rotate(0 18.488753708793865 -26.738889416459017)"><path d="M16.58 -39.02 C22.42 -43.15, 28.25 -47.29, 36.98 -53.48 M16.58 -39.02 C22.3 -43.07, 28.01 -47.12, 36.98 -53.48" stroke="#1e1e1e" stroke-width="4" fill="none"></path></g></g><mask></mask><g stroke-linecap="round" transform="translate(932.6729953088891 10) rotate(0 115.43182208878 67.59318821121971)"><path d="M32 0 C69.18 0, 106.37 0, 198.86 0 C220.2 0, 230.86 10.67, 230.86 32 C230.86 55.2, 230.86 78.4, 230.86 103.19 C230.86 124.52, 220.2 135.19, 198.86 135.19 C153.19 135.19, 107.51 135.19, 32 135.19 C10.67 135.19, 0 124.52, 0 103.19 C0 86.48, 0 69.78, 0 32 C0 10.67, 10.67 0, 32 0" stroke="none" stroke-width="0" fill="#fff5f5"></path><path d="M32 0 C93.88 0, 155.75 0, 198.86 0 M32 0 C94.43 0, 156.85 0, 198.86 0 M198.86 0 C220.2 0, 230.86 10.67, 230.86 32 M198.86 0 C220.2 0, 230.86 10.67, 230.86 32 M230.86 32 C230.86 49.49, 230.86 66.98, 230.86 103.19 M230.86 32 C230.86 56.11, 230.86 80.22, 230.86 103.19 M230.86 103.19 C230.86 124.52, 220.2 135.19, 198.86 135.19 M230.86 103.19 C230.86 124.52, 220.2 135.19, 198.86 135.19 M198.86 135.19 C162.49 135.19, 126.12 135.19, 32 135.19 M198.86 135.19 C139.5 135.19, 80.13 135.19, 32 135.19 M32 135.19 C10.67 135.19, 0 124.52, 0 103.19 M32 135.19 C10.67 135.19, 0 124.52, 0 103.19 M0 103.19 C0 75.36, 0 47.53, 0 32 M0 103.19 C0 80.12, 0 57.05, 0 32 M0 32 C0 10.67, 10.67 0, 32 0 M0 32 C0 10.67, 10.67 0, 32 0" stroke="#1e1e1e" stroke-width="4" fill="none"></path></g><g transform="translate(981.952473647669 66.09318821121974) rotate(0 66.15234375 11.5)"><text x="66.15234375" y="0" font-family="Helvetica, Segoe UI Emoji" font-size="20px" fill="#1e1e1e" text-anchor="middle" style="white-space: pre;" direction="ltr" dominant-baseline="text-before-edge">project_shared</text></g><g mask="url(#mask-YG1IfwcoETnGvhVWX48rE)" stroke-linecap="round"><g transform="translate(1142.1086952998976 163.34773530510273) rotate(0 31.75431000399749 39.95285102447559)"><path d="M0 0 C10.58 13.32, 52.92 66.59, 63.51 79.91 M0 0 C10.58 13.32, 52.92 66.59, 63.51 79.91" stroke="#1e1e1e" stroke-width="4" fill="none"></path></g><g transform="translate(1142.1086952998976 163.34773530510273) rotate(0 31.75431000399749 39.95285102447559)"><path d="M42.2 66.83 C48.18 70.5, 54.16 74.17, 63.51 79.91 M42.2 66.83 C48.79 70.88, 55.39 74.92, 63.51 79.91" stroke="#1e1e1e" stroke-width="4" fill="none"></path></g><g transform="translate(1142.1086952998976 163.34773530510273) rotate(0 31.75431000399749 39.95285102447559)"><path d="M55.59 56.19 C57.81 62.85, 60.03 69.5, 63.51 79.91 M55.59 56.19 C58.04 63.53, 60.49 70.87, 63.51 79.91" stroke="#1e1e1e" stroke-width="4" fill="none"></path></g></g><mask id="mask-YG1IfwcoETnGvhVWX48rE"><rect x="0" y="0" fill="#fff" width="1305.6173153078926" height="343.2534373540539"></rect><rect x="1132.7253099913949" y="191.80058632957832" fill="#000" width="82.275390625" height="23" opacity="1"></rect></mask><g transform="translate(1132.7253099913949 191.80058632957832) rotate(0 41.1376953125 11.5)"><text x="41.1376953125" y="0" font-family="Helvetica, Segoe UI Emoji" font-size="20px" fill="#1e1e1e" text-anchor="middle" style="white-space: pre;" direction="ltr" dominant-baseline="text-before-edge">partecipa</text></g><g stroke-linecap="round" transform="translate(722.038963074628 73.02819650992001) rotate(0 82.49974389790685 48.4153299276573)"><path d="M165 48.42 C165 50.22, 164.83 52.04, 164.48 53.84 C164.14 55.63, 163.62 57.43, 162.93 59.19 C162.25 60.95, 161.39 62.7, 160.37 64.41 C159.35 66.11, 158.17 67.79, 156.83 69.42 C155.49 71.05, 153.99 72.64, 152.35 74.17 C150.72 75.7, 148.92 77.19, 147 78.6 C145.08 80.01, 143.01 81.37, 140.84 82.65 C138.66 83.93, 136.34 85.14, 133.94 86.27 C131.53 87.39, 129 88.45, 126.39 89.41 C123.79 90.37, 121.07 91.25, 118.3 92.04 C115.52 92.82, 112.65 93.52, 109.75 94.11 C106.84 94.71, 103.86 95.21, 100.86 95.62 C97.86 96.02, 94.8 96.32, 91.74 96.53 C88.68 96.73, 85.58 96.83, 82.5 96.83 C79.42 96.83, 76.32 96.73, 73.26 96.53 C70.2 96.32, 67.14 96.02, 64.14 95.62 C61.14 95.21, 58.16 94.71, 55.25 94.11 C52.35 93.52, 49.48 92.82, 46.7 92.04 C43.93 91.25, 41.21 90.37, 38.61 89.41 C36 88.45, 33.47 87.39, 31.06 86.27 C28.65 85.14, 26.34 83.93, 24.16 82.65 C21.99 81.37, 19.92 80.01, 18 78.6 C16.08 77.19, 14.28 75.7, 12.65 74.17 C11.01 72.64, 9.51 71.05, 8.17 69.42 C6.83 67.79, 5.65 66.11, 4.63 64.41 C3.61 62.7, 2.75 60.95, 2.07 59.19 C1.38 57.43, 0.86 55.63, 0.52 53.84 C0.17 52.04, 0 50.22, 0 48.42 C0 46.61, 0.17 44.79, 0.52 42.99 C0.86 41.2, 1.38 39.4, 2.07 37.64 C2.75 35.88, 3.61 34.13, 4.63 32.42 C5.65 30.72, 6.83 29.04, 8.17 27.41 C9.51 25.78, 11.01 24.19, 12.65 22.66 C14.28 21.13, 16.08 19.64, 18 18.23 C19.92 16.82, 21.99 15.46, 24.16 14.18 C26.34 12.9, 28.65 11.69, 31.06 10.56 C33.47 9.44, 36 8.38, 38.61 7.42 C41.21 6.46, 43.93 5.58, 46.7 4.79 C49.48 4.01, 52.35 3.31, 55.25 2.72 C58.16 2.12, 61.14 1.62, 64.14 1.21 C67.14 0.81, 70.2 0.51, 73.26 0.3 C76.32 0.1, 79.42 0, 82.5 0 C85.58 0, 88.68 0.1, 91.74 0.3 C94.8 0.51, 97.86 0.81, 100.86 1.21 C103.86 1.62, 106.84 2.12, 109.75 2.72 C112.65 3.31, 115.52 4.01, 118.3 4.79 C121.07 5.58, 123.79 6.46, 126.39 7.42 C129 8.38, 131.53 9.44, 133.94 10.56 C136.34 11.69, 138.66 12.9, 140.84 14.18 C143.01 15.46, 145.08 16.82, 147 18.23 C148.92 19.64, 150.72 21.13, 152.35 22.66 C153.99 24.19, 155.49 25.78, 156.83 27.41 C158.17 29.04, 159.35 30.72, 160.37 32.42 C161.39 34.13, 162.25 35.88, 162.93 37.64 C163.62 39.4, 164.14 41.2, 164.48 42.99 C164.83 44.79, 164.91 47.51, 165 48.42 C165.09 49.32, 165.09 47.51, 165 48.42" stroke="none" stroke-width="0" fill="#e7f5ff"></path><path d="M165 48.42 C165 50.22, 164.83 52.04, 164.48 53.84 C164.14 55.63, 163.62 57.43, 162.93 59.19 C162.25 60.95, 161.39 62.7, 160.37 64.41 C159.35 66.11, 158.17 67.79, 156.83 69.42 C155.49 71.05, 153.99 72.64, 152.35 74.17 C150.72 75.7, 148.92 77.19, 147 78.6 C145.08 80.01, 143.01 81.37, 140.84 82.65 C138.66 83.93, 136.34 85.14, 133.94 86.27 C131.53 87.39, 129 88.45, 126.39 89.41 C123.79 90.37, 121.07 91.25, 118.3 92.04 C115.52 92.82, 112.65 93.52, 109.75 94.11 C106.84 94.71, 103.86 95.21, 100.86 95.62 C97.86 96.02, 94.8 96.32, 91.74 96.53 C88.68 96.73, 85.58 96.83, 82.5 96.83 C79.42 96.83, 76.32 96.73, 73.26 96.53 C70.2 96.32, 67.14 96.02, 64.14 95.62 C61.14 95.21, 58.16 94.71, 55.25 94.11 C52.35 93.52, 49.48 92.82, 46.7 92.04 C43.93 91.25, 41.21 90.37, 38.61 89.41 C36 88.45, 33.47 87.39, 31.06 86.27 C28.65 85.14, 26.34 83.93, 24.16 82.65 C21.99 81.37, 19.92 80.01, 18 78.6 C16.08 77.19, 14.28 75.7, 12.65 74.17 C11.01 72.64, 9.51 71.05, 8.17 69.42 C6.83 67.79, 5.65 66.11, 4.63 64.41 C3.61 62.7, 2.75 60.95, 2.07 59.19 C1.38 57.43, 0.86 55.63, 0.52 53.84 C0.17 52.04, 0 50.22, 0 48.42 C0 46.61, 0.17 44.79, 0.52 42.99 C0.86 41.2, 1.38 39.4, 2.07 37.64 C2.75 35.88, 3.61 34.13, 4.63 32.42 C5.65 30.72, 6.83 29.04, 8.17 27.41 C9.51 25.78, 11.01 24.19, 12.65 22.66 C14.28 21.13, 16.08 19.64, 18 18.23 C19.92 16.82, 21.99 15.46, 24.16 14.18 C26.34 12.9, 28.65 11.69, 31.06 10.56 C33.47 9.44, 36 8.38, 38.61 7.42 C41.21 6.46, 43.93 5.58, 46.7 4.79 C49.48 4.01, 52.35 3.31, 55.25 2.72 C58.16 2.12, 61.14 1.62, 64.14 1.21 C67.14 0.81, 70.2 0.51, 73.26 0.3 C76.32 0.1, 79.42 0, 82.5 0 C85.58 0, 88.68 0.1, 91.74 0.3 C94.8 0.51, 97.86 0.81, 100.86 1.21 C103.86 1.62, 106.84 2.12, 109.75 2.72 C112.65 3.31, 115.52 4.01, 118.3 4.79 C121.07 5.58, 123.79 6.46, 126.39 7.42 C129 8.38, 131.53 9.44, 133.94 10.56 C136.34 11.69, 138.66 12.9, 140.84 14.18 C143.01 15.46, 145.08 16.82, 147 18.23 C148.92 19.64, 150.72 21.13, 152.35 22.66 C153.99 24.19, 155.49 25.78, 156.83 27.41 C158.17 29.04, 159.35 30.72, 160.37 32.42 C161.39 34.13, 162.25 35.88, 162.93 37.64 C163.62 39.4, 164.14 41.2, 164.48 42.99 C164.83 44.79, 164.91 47.51, 165 48.42 C165.09 49.32, 165.09 47.51, 165 48.42" stroke="#1e1e1e" stroke-width="4" fill="none"></path></g><g transform="translate(768.0082426786714 98.20871833234685) rotate(0 36.6943359375 23)"><text x="36.6943359375" y="0" font-family="Helvetica, Segoe UI Emoji" font-size="20px" fill="#1e1e1e" text-anchor="middle" style="white-space: pre;" direction="ltr" dominant-baseline="text-before-edge">crea un </text><text x="36.6943359375" y="23" font-family="Helvetica, Segoe UI Emoji" font-size="20px" fill="#1e1e1e" text-anchor="middle" style="white-space: pre;" direction="ltr" dominant-baseline="text-before-edge">progetto</text></g><g stroke-linecap="round"><g transform="translate(813.2381670284512 246.4694428632679) rotate(0 0 -34.48046048355289)"><path d="M0 0 C0 -11.49, 0 -57.47, 0 -68.96 M0 0 C0 -11.49, 0 -57.47, 0 -68.96" stroke="#1e1e1e" stroke-width="4" fill="none"></path></g><g transform="translate(813.2381670284512 246.4694428632679) rotate(0 0 -34.48046048355289)"><path d="M8.55 -45.47 C5.89 -52.79, 3.22 -60.11, 0 -68.96 M8.55 -45.47 C5.96 -52.58, 3.38 -59.69, 0 -68.96" stroke="#1e1e1e" stroke-width="4" fill="none"></path></g><g transform="translate(813.2381670284512 246.4694428632679) rotate(0 0 -34.48046048355289)"><path d="M-8.55 -45.47 C-5.89 -52.79, -3.22 -60.11, 0 -68.96 M-8.55 -45.47 C-5.96 -52.58, -3.38 -59.69, 0 -68.96" stroke="#1e1e1e" stroke-width="4" fill="none"></path></g></g><mask></mask></svg>